solid Face_Frame_R5C
facet normal 0.0 0.0 -1.0
  outer loop
    vertex -89.0 157.0 41.5
    vertex -86.5 153.0 41.5
    vertex -89.0 85.0 41.5
  endloop
endfacet
facet normal 0.0 0.0 -1.0
  outer loop
    vertex -86.5 153.0 41.5
    vertex -89.0 157.0 41.5
    vertex -86.4488887394336 153.38822856765378 41.5
  endloop
endfacet
facet normal 0.0 0.0 -1.0
  outer loop
    vertex -86.4488887394336 153.38822856765378 41.5
    vertex -89.0 157.0 41.5
    vertex -86.29903810567666 153.75 41.5
  endloop
endfacet
facet normal 0.0 0.0 -1.0
  outer loop
    vertex -86.29903810567666 153.75 41.5
    vertex -89.0 157.0 41.5
    vertex -86.06066017177983 154.06066017177983 41.5
  endloop
endfacet
facet normal 0.0 0.0 -1.0
  outer loop
    vertex -86.06066017177983 154.06066017177983 41.5
    vertex -89.0 157.0 41.5
    vertex -85.75000000000001 154.29903810567666 41.5
  endloop
endfacet
facet normal 0.0 0.0 -1.0
  outer loop
    vertex -85.75000000000001 154.29903810567666 41.5
    vertex -89.0 157.0 41.5
    vertex -85.3882285676538 154.44888873943358 41.5
  endloop
endfacet
facet normal 0.0 0.0 -1.0
  outer loop
    vertex -85.3882285676538 154.44888873943358 41.5
    vertex -89.0 157.0 41.5
    vertex -85.0 154.5 41.5
  endloop
endfacet
facet normal 0.0 0.0 -1.0
  outer loop
    vertex -85.0 154.5 41.5
    vertex -89.0 157.0 41.5
    vertex -17.000000000000004 157.0 41.5
  endloop
endfacet
facet normal 0.0 0.0 -1.0
  outer loop
    vertex -89.0 85.0 41.5
    vertex -86.5 153.0 41.5
    vertex -86.50000000000001 89.0 41.5
  endloop
endfacet
facet normal 0.0 0.0 -1.0
  outer loop
    vertex -85.0 154.5 41.5
    vertex -17.000000000000004 157.0 41.5
    vertex -84.61177143234622 154.44888873943358 41.5
  endloop
endfacet
facet normal 0.0 0.0 -1.0
  outer loop
    vertex -84.61177143234622 154.44888873943358 41.5
    vertex -17.000000000000004 157.0 41.5
    vertex -84.25000000000001 154.29903810567666 41.5
  endloop
endfacet
facet normal 0.0 0.0 -1.0
  outer loop
    vertex -84.25000000000001 154.29903810567666 41.5
    vertex -17.000000000000004 157.0 41.5
    vertex -83.93933982822018 154.06066017177983 41.5
  endloop
endfacet
facet normal 0.0 0.0 -1.0
  outer loop
    vertex -83.93933982822018 154.06066017177983 41.5
    vertex -17.000000000000004 157.0 41.5
    vertex -83.70096189432336 153.75 41.5
  endloop
endfacet
facet normal 0.0 0.0 -1.0
  outer loop
    vertex -83.70096189432336 153.75 41.5
    vertex -17.000000000000004 157.0 41.5
    vertex -83.55111126056642 153.38822856765378 41.5
  endloop
endfacet
facet normal 0.0 0.0 -1.0
  outer loop
    vertex -83.55111126056642 153.38822856765378 41.5
    vertex -17.000000000000004 157.0 41.5
    vertex -83.5 153.0 41.5
  endloop
endfacet
facet normal 0.0 0.0 -1.0
  outer loop
    vertex -83.5 153.0 41.5
    vertex -17.000000000000004 157.0 41.5
    vertex -21.750000000000004 154.29903810567666 41.5
  endloop
endfacet
facet normal 0.0 0.0 -1.0
  outer loop
    vertex -83.5 153.0 41.5
    vertex -21.750000000000004 154.29903810567666 41.5
    vertex -22.06066017177983 154.06066017177983 41.5
  endloop
endfacet
facet normal 0.0 0.0 -1.0
  outer loop
    vertex -83.5 153.0 41.5
    vertex -22.06066017177983 154.06066017177983 41.5
    vertex -83.5 89.0 41.5
  endloop
endfacet
facet normal 0.0 0.0 -1.0
  outer loop
    vertex -83.5 89.0 41.5
    vertex -22.06066017177983 154.06066017177983 41.5
    vertex -22.299038105676658 153.75 41.5
  endloop
endfacet
facet normal 0.0 0.0 -1.0
  outer loop
    vertex -83.5 89.0 41.5
    vertex -22.299038105676658 153.75 41.5
    vertex -22.44888873943361 153.38822856765378 41.5
  endloop
endfacet
facet normal 0.0 0.0 -1.0
  outer loop
    vertex -83.5 89.0 41.5
    vertex -22.44888873943361 153.38822856765378 41.5
    vertex -22.500000000000004 153.0 41.5
  endloop
endfacet
facet normal 0.0 0.0 -1.0
  outer loop
    vertex -21.750000000000004 154.29903810567666 41.5
    vertex -17.000000000000004 157.0 41.5
    vertex -21.388228567653787 154.44888873943358 41.5
  endloop
endfacet
facet normal 0.0 0.0 -1.0
  outer loop
    vertex -21.388228567653787 154.44888873943358 41.5
    vertex -17.000000000000004 157.0 41.5
    vertex -21.000000000000007 154.5 41.5
  endloop
endfacet
facet normal 0.0 0.0 -1.0
  outer loop
    vertex -21.000000000000007 154.5 41.5
    vertex -17.000000000000004 157.0 41.5
    vertex -20.611771432346227 154.44888873943358 41.5
  endloop
endfacet
facet normal 0.0 0.0 -1.0
  outer loop
    vertex -20.611771432346227 154.44888873943358 41.5
    vertex -17.000000000000004 157.0 41.5
    vertex -20.250000000000007 154.29903810567666 41.5
  endloop
endfacet
facet normal 0.0 0.0 -1.0
  outer loop
    vertex -20.250000000000007 154.29903810567666 41.5
    vertex -17.000000000000004 157.0 41.5
    vertex -19.939339828220184 154.06066017177983 41.5
  endloop
endfacet
facet normal 0.0 0.0 -1.0
  outer loop
    vertex -19.939339828220184 154.06066017177983 41.5
    vertex -17.000000000000004 157.0 41.5
    vertex -19.700961894323356 153.75 41.5
  endloop
endfacet
facet normal 0.0 0.0 -1.0
  outer loop
    vertex -19.700961894323356 153.75 41.5
    vertex -17.000000000000004 157.0 41.5
    vertex -19.551111260566405 153.38822856765378 41.5
  endloop
endfacet
facet normal 0.0 0.0 -1.0
  outer loop
    vertex -19.551111260566405 153.38822856765378 41.5
    vertex -17.000000000000004 157.0 41.5
    vertex -19.50000000000001 153.0 41.5
  endloop
endfacet
facet normal 0.0 0.0 -1.0
  outer loop
    vertex -19.50000000000001 153.0 41.5
    vertex -17.000000000000004 157.0 41.5
    vertex -19.50000000000001 89.0 41.5
  endloop
endfacet
facet normal 0.0 0.0 -1.0
  outer loop
    vertex -89.0 85.0 41.5
    vertex -85.0 87.50000000000001 41.5
    vertex -17.000000000000004 85.0 41.5
  endloop
endfacet
facet normal 0.0 0.0 -1.0
  outer loop
    vertex -85.0 87.50000000000001 41.5
    vertex -89.0 85.0 41.5
    vertex -85.3882285676538 87.5511112605664 41.5
  endloop
endfacet
facet normal 0.0 0.0 -1.0
  outer loop
    vertex -85.3882285676538 87.5511112605664 41.5
    vertex -89.0 85.0 41.5
    vertex -85.75000000000001 87.70096189432334 41.5
  endloop
endfacet
facet normal 0.0 0.0 -1.0
  outer loop
    vertex -85.75000000000001 87.70096189432334 41.5
    vertex -89.0 85.0 41.5
    vertex -86.06066017177983 87.93933982822018 41.5
  endloop
endfacet
facet normal 0.0 0.0 -1.0
  outer loop
    vertex -86.06066017177983 87.93933982822018 41.5
    vertex -89.0 85.0 41.5
    vertex -86.29903810567666 88.25000000000001 41.5
  endloop
endfacet
facet normal 0.0 0.0 -1.0
  outer loop
    vertex -86.29903810567666 88.25000000000001 41.5
    vertex -89.0 85.0 41.5
    vertex -86.4488887394336 88.61177143234622 41.5
  endloop
endfacet
facet normal 0.0 0.0 -1.0
  outer loop
    vertex -86.4488887394336 88.61177143234622 41.5
    vertex -89.0 85.0 41.5
    vertex -86.50000000000001 89.0 41.5
  endloop
endfacet
facet normal 0.0 0.0 -1.0
  outer loop
    vertex -17.000000000000004 85.0 41.5
    vertex -85.0 87.50000000000001 41.5
    vertex -84.61177143234622 87.5511112605664 41.5
  endloop
endfacet
facet normal 0.0 0.0 -1.0
  outer loop
    vertex -17.000000000000004 85.0 41.5
    vertex -84.61177143234622 87.5511112605664 41.5
    vertex -84.25 87.70096189432334 41.5
  endloop
endfacet
facet normal 0.0 0.0 -1.0
  outer loop
    vertex -17.000000000000004 85.0 41.5
    vertex -84.25 87.70096189432334 41.5
    vertex -83.93933982822018 87.93933982822018 41.5
  endloop
endfacet
facet normal 0.0 0.0 -1.0
  outer loop
    vertex -17.000000000000004 85.0 41.5
    vertex -83.93933982822018 87.93933982822018 41.5
    vertex -83.70096189432336 88.25000000000001 41.5
  endloop
endfacet
facet normal 0.0 0.0 -1.0
  outer loop
    vertex -17.000000000000004 85.0 41.5
    vertex -83.70096189432336 88.25000000000001 41.5
    vertex -83.5511112605664 88.61177143234623 41.5
  endloop
endfacet
facet normal 0.0 0.0 -1.0
  outer loop
    vertex -17.000000000000004 85.0 41.5
    vertex -83.5511112605664 88.61177143234623 41.5
    vertex -83.5 89.0 41.5
  endloop
endfacet
facet normal 0.0 0.0 -1.0
  outer loop
    vertex -17.000000000000004 85.0 41.5
    vertex -83.5 89.0 41.5
    vertex -21.750000000000004 87.70096189432334 41.5
  endloop
endfacet
facet normal 0.0 0.0 -1.0
  outer loop
    vertex -21.750000000000004 87.70096189432334 41.5
    vertex -83.5 89.0 41.5
    vertex -22.06066017177983 87.93933982822018 41.5
  endloop
endfacet
facet normal 0.0 0.0 -1.0
  outer loop
    vertex -22.06066017177983 87.93933982822018 41.5
    vertex -83.5 89.0 41.5
    vertex -22.29903810567667 88.25000000000001 41.5
  endloop
endfacet
facet normal 0.0 0.0 -1.0
  outer loop
    vertex -22.29903810567667 88.25000000000001 41.5
    vertex -83.5 89.0 41.5
    vertex -22.44888873943361 88.61177143234622 41.5
  endloop
endfacet
facet normal 0.0 0.0 -1.0
  outer loop
    vertex -22.44888873943361 88.61177143234622 41.5
    vertex -83.5 89.0 41.5
    vertex -22.500000000000004 89.0 41.5
  endloop
endfacet
facet normal 0.0 0.0 -1.0
  outer loop
    vertex -22.500000000000004 89.0 41.5
    vertex -83.5 89.0 41.5
    vertex -22.500000000000004 153.0 41.5
  endloop
endfacet
facet normal 0.0 0.0 -1.0
  outer loop
    vertex -17.000000000000004 85.0 41.5
    vertex -21.750000000000004 87.70096189432334 41.5
    vertex -21.388228567653787 87.5511112605664 41.5
  endloop
endfacet
facet normal 0.0 0.0 -1.0
  outer loop
    vertex -17.000000000000004 85.0 41.5
    vertex -21.388228567653787 87.5511112605664 41.5
    vertex -21.000000000000007 87.50000000000001 41.5
  endloop
endfacet
facet normal 0.0 0.0 -1.0
  outer loop
    vertex -17.000000000000004 85.0 41.5
    vertex -21.000000000000007 87.50000000000001 41.5
    vertex -20.611771432346227 87.5511112605664 41.5
  endloop
endfacet
facet normal 0.0 0.0 -1.0
  outer loop
    vertex -17.000000000000004 85.0 41.5
    vertex -20.611771432346227 87.5511112605664 41.5
    vertex -20.250000000000007 87.70096189432334 41.5
  endloop
endfacet
facet normal 0.0 0.0 -1.0
  outer loop
    vertex -17.000000000000004 85.0 41.5
    vertex -20.250000000000007 87.70096189432334 41.5
    vertex -19.939339828220184 87.93933982822018 41.5
  endloop
endfacet
facet normal 0.0 0.0 -1.0
  outer loop
    vertex -17.000000000000004 85.0 41.5
    vertex -19.939339828220184 87.93933982822018 41.5
    vertex -19.700961894323346 88.25000000000001 41.5
  endloop
endfacet
facet normal 0.0 0.0 -1.0
  outer loop
    vertex -17.000000000000004 85.0 41.5
    vertex -19.700961894323346 88.25000000000001 41.5
    vertex -19.551111260566405 88.61177143234623 41.5
  endloop
endfacet
facet normal 0.0 0.0 -1.0
  outer loop
    vertex -17.000000000000004 85.0 41.5
    vertex -19.551111260566405 88.61177143234623 41.5
    vertex -19.50000000000001 89.0 41.5
  endloop
endfacet
facet normal 0.0 0.0 -1.0
  outer loop
    vertex -17.000000000000004 85.0 41.5
    vertex -19.50000000000001 89.0 41.5
    vertex -17.000000000000004 157.0 41.5
  endloop
endfacet
facet normal 0.0 0.0 -1.0
  outer loop
    vertex -22.44888873943361 152.61177143234625 41.5
    vertex -22.500000000000004 89.0 41.5
    vertex -22.500000000000004 153.0 41.5
  endloop
endfacet
facet normal 0.0 0.0 -1.0
  outer loop
    vertex -22.500000000000004 89.0 41.5
    vertex -22.44888873943361 152.61177143234625 41.5
    vertex -22.44888873943361 89.38822856765378 41.5
  endloop
endfacet
facet normal 0.0 0.0 -1.0
  outer loop
    vertex -22.44888873943361 89.38822856765378 41.5
    vertex -22.44888873943361 152.61177143234625 41.5
    vertex -22.299038105676658 152.25 41.5
  endloop
endfacet
facet normal 0.0 0.0 -1.0
  outer loop
    vertex -22.44888873943361 89.38822856765378 41.5
    vertex -22.299038105676658 152.25 41.5
    vertex -22.29903810567667 89.75 41.5
  endloop
endfacet
facet normal 0.0 0.0 -1.0
  outer loop
    vertex -22.29903810567667 89.75 41.5
    vertex -22.299038105676658 152.25 41.5
    vertex -22.06066017177983 90.06066017177983 41.5
  endloop
endfacet
facet normal 0.0 0.0 -1.0
  outer loop
    vertex -22.06066017177983 90.06066017177983 41.5
    vertex -22.299038105676658 152.25 41.5
    vertex -22.06066017177983 151.9393398282202 41.5
  endloop
endfacet
facet normal 0.0 0.0 -1.0
  outer loop
    vertex -22.06066017177983 90.06066017177983 41.5
    vertex -22.06066017177983 151.9393398282202 41.5
    vertex -21.750000000000004 151.70096189432337 41.5
  endloop
endfacet
facet normal 0.0 0.0 -1.0
  outer loop
    vertex -22.06066017177983 90.06066017177983 41.5
    vertex -21.750000000000004 151.70096189432337 41.5
    vertex -21.750000000000004 90.29903810567666 41.5
  endloop
endfacet
facet normal 0.0 0.0 -1.0
  outer loop
    vertex -21.750000000000004 90.29903810567666 41.5
    vertex -21.750000000000004 151.70096189432337 41.5
    vertex -21.388228567653787 151.5511112605664 41.5
  endloop
endfacet
facet normal 0.0 0.0 -1.0
  outer loop
    vertex -21.750000000000004 90.29903810567666 41.5
    vertex -21.388228567653787 151.5511112605664 41.5
    vertex -21.388228567653787 90.44888873943361 41.5
  endloop
endfacet
facet normal 0.0 0.0 -1.0
  outer loop
    vertex -21.388228567653787 90.44888873943361 41.5
    vertex -21.388228567653787 151.5511112605664 41.5
    vertex -21.000000000000007 151.50000000000003 41.5
  endloop
endfacet
facet normal 0.0 0.0 -1.0
  outer loop
    vertex -21.388228567653787 90.44888873943361 41.5
    vertex -21.000000000000007 151.50000000000003 41.5
    vertex -21.000000000000007 90.5 41.5
  endloop
endfacet
facet normal 0.0 0.0 -1.0
  outer loop
    vertex -21.000000000000007 90.5 41.5
    vertex -21.000000000000007 151.50000000000003 41.5
    vertex -20.611771432346227 151.5511112605664 41.5
  endloop
endfacet
facet normal 0.0 0.0 -1.0
  outer loop
    vertex -21.000000000000007 90.5 41.5
    vertex -20.611771432346227 151.5511112605664 41.5
    vertex -20.611771432346227 90.44888873943361 41.5
  endloop
endfacet
facet normal 0.0 0.0 -1.0
  outer loop
    vertex -20.611771432346227 90.44888873943361 41.5
    vertex -20.611771432346227 151.5511112605664 41.5
    vertex -20.250000000000007 151.70096189432337 41.5
  endloop
endfacet
facet normal 0.0 0.0 -1.0
  outer loop
    vertex -20.611771432346227 90.44888873943361 41.5
    vertex -20.250000000000007 151.70096189432337 41.5
    vertex -20.250000000000007 90.29903810567667 41.5
  endloop
endfacet
facet normal 0.0 0.0 -1.0
  outer loop
    vertex -20.250000000000007 90.29903810567667 41.5
    vertex -20.250000000000007 151.70096189432337 41.5
    vertex -19.939339828220184 151.9393398282202 41.5
  endloop
endfacet
facet normal 0.0 0.0 -1.0
  outer loop
    vertex -20.250000000000007 90.29903810567667 41.5
    vertex -19.939339828220184 151.9393398282202 41.5
    vertex -19.939339828220184 90.06066017177983 41.5
  endloop
endfacet
facet normal 0.0 0.0 -1.0
  outer loop
    vertex -19.939339828220184 90.06066017177983 41.5
    vertex -19.939339828220184 151.9393398282202 41.5
    vertex -19.700961894323346 152.25 41.5
  endloop
endfacet
facet normal 0.0 0.0 -1.0
  outer loop
    vertex -19.939339828220184 90.06066017177983 41.5
    vertex -19.700961894323346 152.25 41.5
    vertex -19.700961894323346 89.75 41.5
  endloop
endfacet
facet normal 0.0 0.0 -1.0
  outer loop
    vertex -19.700961894323346 89.75 41.5
    vertex -19.700961894323346 152.25 41.5
    vertex -19.551111260566405 152.61177143234625 41.5
  endloop
endfacet
facet normal 0.0 0.0 -1.0
  outer loop
    vertex -19.700961894323346 89.75 41.5
    vertex -19.551111260566405 152.61177143234625 41.5
    vertex -19.551111260566405 89.38822856765378 41.5
  endloop
endfacet
facet normal 0.0 0.0 -1.0
  outer loop
    vertex -19.551111260566405 89.38822856765378 41.5
    vertex -19.551111260566405 152.61177143234625 41.5
    vertex -19.50000000000001 153.0 41.5
  endloop
endfacet
facet normal 0.0 0.0 -1.0
  outer loop
    vertex -19.551111260566405 89.38822856765378 41.5
    vertex -19.50000000000001 153.0 41.5
    vertex -19.50000000000001 89.0 41.5
  endloop
endfacet
facet normal 0.0 0.0 -1.0
  outer loop
    vertex -86.5 153.0 41.5
    vertex -86.4488887394336 89.38822856765378 41.5
    vertex -86.50000000000001 89.0 41.5
  endloop
endfacet
facet normal 0.0 0.0 -1.0
  outer loop
    vertex -86.4488887394336 89.38822856765378 41.5
    vertex -86.5 153.0 41.5
    vertex -86.4488887394336 152.61177143234625 41.5
  endloop
endfacet
facet normal 0.0 0.0 -1.0
  outer loop
    vertex -86.4488887394336 89.38822856765378 41.5
    vertex -86.4488887394336 152.61177143234625 41.5
    vertex -86.29903810567666 152.25 41.5
  endloop
endfacet
facet normal 0.0 0.0 -1.0
  outer loop
    vertex -86.4488887394336 89.38822856765378 41.5
    vertex -86.29903810567666 152.25 41.5
    vertex -86.29903810567666 89.75 41.5
  endloop
endfacet
facet normal 0.0 0.0 -1.0
  outer loop
    vertex -86.29903810567666 89.75 41.5
    vertex -86.29903810567666 152.25 41.5
    vertex -86.06066017177983 151.9393398282202 41.5
  endloop
endfacet
facet normal 0.0 0.0 -1.0
  outer loop
    vertex -86.29903810567666 89.75 41.5
    vertex -86.06066017177983 151.9393398282202 41.5
    vertex -86.06066017177983 90.06066017177983 41.5
  endloop
endfacet
facet normal 0.0 0.0 -1.0
  outer loop
    vertex -86.06066017177983 90.06066017177983 41.5
    vertex -86.06066017177983 151.9393398282202 41.5
    vertex -85.75000000000001 151.70096189432337 41.5
  endloop
endfacet
facet normal 0.0 0.0 -1.0
  outer loop
    vertex -86.06066017177983 90.06066017177983 41.5
    vertex -85.75000000000001 151.70096189432337 41.5
    vertex -85.75000000000001 90.29903810567666 41.5
  endloop
endfacet
facet normal 0.0 0.0 -1.0
  outer loop
    vertex -85.75000000000001 90.29903810567666 41.5
    vertex -85.75000000000001 151.70096189432337 41.5
    vertex -85.3882285676538 151.5511112605664 41.5
  endloop
endfacet
facet normal 0.0 0.0 -1.0
  outer loop
    vertex -85.75000000000001 90.29903810567666 41.5
    vertex -85.3882285676538 151.5511112605664 41.5
    vertex -85.3882285676538 90.44888873943361 41.5
  endloop
endfacet
facet normal 0.0 0.0 -1.0
  outer loop
    vertex -85.3882285676538 90.44888873943361 41.5
    vertex -85.3882285676538 151.5511112605664 41.5
    vertex -85.0 151.50000000000003 41.5
  endloop
endfacet
facet normal 0.0 0.0 -1.0
  outer loop
    vertex -85.3882285676538 90.44888873943361 41.5
    vertex -85.0 151.50000000000003 41.5
    vertex -85.0 90.5 41.5
  endloop
endfacet
facet normal 0.0 0.0 -1.0
  outer loop
    vertex -85.0 90.5 41.5
    vertex -85.0 151.50000000000003 41.5
    vertex -84.61177143234622 151.5511112605664 41.5
  endloop
endfacet
facet normal 0.0 0.0 -1.0
  outer loop
    vertex -85.0 90.5 41.5
    vertex -84.61177143234622 151.5511112605664 41.5
    vertex -84.61177143234622 90.44888873943361 41.5
  endloop
endfacet
facet normal 0.0 0.0 -1.0
  outer loop
    vertex -84.61177143234622 90.44888873943361 41.5
    vertex -84.61177143234622 151.5511112605664 41.5
    vertex -84.25000000000001 151.70096189432337 41.5
  endloop
endfacet
facet normal 0.0 0.0 -1.0
  outer loop
    vertex -84.61177143234622 90.44888873943361 41.5
    vertex -84.25000000000001 151.70096189432337 41.5
    vertex -84.25000000000001 90.29903810567667 41.5
  endloop
endfacet
facet normal 0.0 0.0 -1.0
  outer loop
    vertex -84.25000000000001 90.29903810567667 41.5
    vertex -84.25000000000001 151.70096189432337 41.5
    vertex -83.93933982822018 151.9393398282202 41.5
  endloop
endfacet
facet normal 0.0 0.0 -1.0
  outer loop
    vertex -84.25000000000001 90.29903810567667 41.5
    vertex -83.93933982822018 151.9393398282202 41.5
    vertex -83.93933982822018 90.06066017177983 41.5
  endloop
endfacet
facet normal 0.0 0.0 -1.0
  outer loop
    vertex -83.93933982822018 90.06066017177983 41.5
    vertex -83.93933982822018 151.9393398282202 41.5
    vertex -83.70096189432336 152.25 41.5
  endloop
endfacet
facet normal 0.0 0.0 -1.0
  outer loop
    vertex -83.93933982822018 90.06066017177983 41.5
    vertex -83.70096189432336 152.25 41.5
    vertex -83.70096189432336 89.75 41.5
  endloop
endfacet
facet normal 0.0 0.0 -1.0
  outer loop
    vertex -83.70096189432336 89.75 41.5
    vertex -83.70096189432336 152.25 41.5
    vertex -83.55111126056642 152.61177143234625 41.5
  endloop
endfacet
facet normal 0.0 0.0 -1.0
  outer loop
    vertex -83.70096189432336 89.75 41.5
    vertex -83.55111126056642 152.61177143234625 41.5
    vertex -83.5511112605664 89.38822856765378 41.5
  endloop
endfacet
facet normal 0.0 0.0 -1.0
  outer loop
    vertex -83.5511112605664 89.38822856765378 41.5
    vertex -83.55111126056642 152.61177143234625 41.5
    vertex -83.5 153.0 41.5
  endloop
endfacet
facet normal 0.0 0.0 -1.0
  outer loop
    vertex -83.5511112605664 89.38822856765378 41.5
    vertex -83.5 153.0 41.5
    vertex -83.5 89.0 41.5
  endloop
endfacet
facet normal 0.9914448613738113 -0.13052619222004555 0.0
  outer loop
    vertex -22.44888873943361 153.38822856765378 41.5
    vertex -22.500000000000004 153.0 43.0
    vertex -22.500000000000004 153.0 41.5
  endloop
endfacet
facet normal 0.9914448613738113 -0.13052619222004555 0.0
  outer loop
    vertex -22.500000000000004 153.0 43.0
    vertex -22.44888873943361 153.38822856765378 41.5
    vertex -22.44888873943361 153.38822856765378 43.0
  endloop
endfacet
facet normal -0.3826834323651054 -0.9238795325112803 -0.0
  outer loop
    vertex -20.250000000000007 154.29903810567666 43.0
    vertex -20.611771432346227 154.44888873943358 41.5
    vertex -20.250000000000007 154.29903810567666 41.5
  endloop
endfacet
facet normal -0.3826834323651054 -0.9238795325112803 -0.0
  outer loop
    vertex -20.611771432346227 154.44888873943358 41.5
    vertex -20.250000000000007 154.29903810567666 43.0
    vertex -20.611771432346227 154.44888873943358 43.0
  endloop
endfacet
facet normal -0.13052619222004555 -0.9914448613738113 -0.0
  outer loop
    vertex -20.611771432346227 154.44888873943358 43.0
    vertex -21.000000000000007 154.5 41.5
    vertex -20.611771432346227 154.44888873943358 41.5
  endloop
endfacet
facet normal -0.13052619222004555 -0.9914448613738113 -0.0
  outer loop
    vertex -21.000000000000007 154.5 41.5
    vertex -20.611771432346227 154.44888873943358 43.0
    vertex -21.000000000000007 154.5 43.0
  endloop
endfacet
facet normal 0.9238795325112803 0.3826834323651054 0.0
  outer loop
    vertex -22.44888873943361 152.61177143234625 41.5
    vertex -22.299038105676658 152.25 43.0
    vertex -22.299038105676658 152.25 41.5
  endloop
endfacet
facet normal 0.9238795325112803 0.3826834323651054 0.0
  outer loop
    vertex -22.299038105676658 152.25 43.0
    vertex -22.44888873943361 152.61177143234625 41.5
    vertex -22.44888873943361 152.61177143234625 43.0
  endloop
endfacet
facet normal 0.7933533402912517 0.6087614290086991 0.0
  outer loop
    vertex -22.299038105676658 152.25 41.5
    vertex -22.06066017177983 151.9393398282202 43.0
    vertex -22.06066017177983 151.9393398282202 41.5
  endloop
endfacet
facet normal 0.7933533402912517 0.6087614290086991 0.0
  outer loop
    vertex -22.06066017177983 151.9393398282202 43.0
    vertex -22.299038105676658 152.25 41.5
    vertex -22.299038105676658 152.25 43.0
  endloop
endfacet
facet normal -1.0 0.0 0.0
  outer loop
    vertex -89.0 157.0 43.0
    vertex -89.0 85.0 41.5
    vertex -89.0 85.0 43.0
  endloop
endfacet
facet normal -1.0 0.0 0.0
  outer loop
    vertex -89.0 85.0 41.5
    vertex -89.0 157.0 43.0
    vertex -89.0 157.0 41.5
  endloop
endfacet
facet normal 1.0 0.0 0.0
  outer loop
    vertex -17.000000000000004 157.0 41.5
    vertex -17.000000000000004 85.0 43.0
    vertex -17.000000000000004 85.0 41.5
  endloop
endfacet
facet normal 1.0 0.0 0.0
  outer loop
    vertex -17.000000000000004 85.0 43.0
    vertex -17.000000000000004 157.0 41.5
    vertex -17.000000000000004 157.0 43.0
  endloop
endfacet
facet normal 0.3826834323651054 -0.9238795325112803 0.0
  outer loop
    vertex -21.388228567653787 154.44888873943358 43.0
    vertex -21.750000000000004 154.29903810567666 41.5
    vertex -21.388228567653787 154.44888873943358 41.5
  endloop
endfacet
facet normal 0.3826834323651054 -0.9238795325112803 0.0
  outer loop
    vertex -21.750000000000004 154.29903810567666 41.5
    vertex -21.388228567653787 154.44888873943358 43.0
    vertex -21.750000000000004 154.29903810567666 43.0
  endloop
endfacet
facet normal 0.9238795325112803 -0.3826834323651054 0.0
  outer loop
    vertex -22.299038105676658 153.75 41.5
    vertex -22.44888873943361 153.38822856765378 43.0
    vertex -22.44888873943361 153.38822856765378 41.5
  endloop
endfacet
facet normal 0.9238795325112803 -0.3826834323651054 0.0
  outer loop
    vertex -22.44888873943361 153.38822856765378 43.0
    vertex -22.299038105676658 153.75 41.5
    vertex -22.299038105676658 153.75 43.0
  endloop
endfacet
facet normal 0.0 1.0 0.0
  outer loop
    vertex -89.0 157.0 43.0
    vertex -17.000000000000004 157.0 41.5
    vertex -89.0 157.0 41.5
  endloop
endfacet
facet normal 0.0 1.0 0.0
  outer loop
    vertex -17.000000000000004 157.0 41.5
    vertex -89.0 157.0 43.0
    vertex -17.000000000000004 157.0 43.0
  endloop
endfacet
facet normal -0.0 -1.0 -0.0
  outer loop
    vertex -17.000000000000004 85.0 43.0
    vertex -89.0 85.0 41.5
    vertex -17.000000000000004 85.0 41.5
  endloop
endfacet
facet normal -0.0 -1.0 -0.0
  outer loop
    vertex -89.0 85.0 41.5
    vertex -17.000000000000004 85.0 43.0
    vertex -89.0 85.0 43.0
  endloop
endfacet
facet normal 0.3826834323651054 0.9238795325112803 0.0
  outer loop
    vertex -21.750000000000004 151.70096189432337 43.0
    vertex -21.388228567653787 151.5511112605664 41.5
    vertex -21.750000000000004 151.70096189432337 41.5
  endloop
endfacet
facet normal 0.3826834323651054 0.9238795325112803 0.0
  outer loop
    vertex -21.388228567653787 151.5511112605664 41.5
    vertex -21.750000000000004 151.70096189432337 43.0
    vertex -21.388228567653787 151.5511112605664 43.0
  endloop
endfacet
facet normal -0.13052619222004555 0.9914448613738113 0.0
  outer loop
    vertex -21.000000000000007 151.50000000000003 43.0
    vertex -20.611771432346227 151.5511112605664 41.5
    vertex -21.000000000000007 151.50000000000003 41.5
  endloop
endfacet
facet normal -0.13052619222004555 0.9914448613738113 0.0
  outer loop
    vertex -20.611771432346227 151.5511112605664 41.5
    vertex -21.000000000000007 151.50000000000003 43.0
    vertex -20.611771432346227 151.5511112605664 43.0
  endloop
endfacet
facet normal -0.3826834323651054 0.9238795325112803 0.0
  outer loop
    vertex -20.611771432346227 151.5511112605664 43.0
    vertex -20.250000000000007 151.70096189432337 41.5
    vertex -20.611771432346227 151.5511112605664 41.5
  endloop
endfacet
facet normal -0.3826834323651054 0.9238795325112803 0.0
  outer loop
    vertex -20.250000000000007 151.70096189432337 41.5
    vertex -20.611771432346227 151.5511112605664 43.0
    vertex -20.250000000000007 151.70096189432337 43.0
  endloop
endfacet
facet normal -0.13052619222005263 -0.9914448613738104 -0.0
  outer loop
    vertex -20.611771432346227 90.44888873943361 43.0
    vertex -21.000000000000007 90.5 41.5
    vertex -20.611771432346227 90.44888873943361 41.5
  endloop
endfacet
facet normal -0.13052619222005263 -0.9914448613738104 -0.0
  outer loop
    vertex -21.000000000000007 90.5 41.5
    vertex -20.611771432346227 90.44888873943361 43.0
    vertex -21.000000000000007 90.5 43.0
  endloop
endfacet
facet normal -0.9238795325112906 0.38268343236508084 0.0
  outer loop
    vertex -19.551111260566405 152.61177143234625 43.0
    vertex -19.700961894323346 152.25 41.5
    vertex -19.700961894323346 152.25 43.0
  endloop
endfacet
facet normal -0.9238795325112906 0.38268343236508084 0.0
  outer loop
    vertex -19.700961894323346 152.25 41.5
    vertex -19.551111260566405 152.61177143234625 43.0
    vertex -19.551111260566405 152.61177143234625 41.5
  endloop
endfacet
facet normal 0.7933533402912337 0.6087614290087224 0.0
  outer loop
    vertex -22.29903810567667 88.25000000000001 41.5
    vertex -22.06066017177983 87.93933982822018 43.0
    vertex -22.06066017177983 87.93933982822018 41.5
  endloop
endfacet
facet normal 0.7933533402912337 0.6087614290087224 0.0
  outer loop
    vertex -22.06066017177983 87.93933982822018 43.0
    vertex -22.29903810567667 88.25000000000001 41.5
    vertex -22.29903810567667 88.25000000000001 43.0
  endloop
endfacet
facet normal 0.7933533402912344 -0.6087614290087215 0.0
  outer loop
    vertex -22.06066017177983 90.06066017177983 41.5
    vertex -22.29903810567667 89.75 43.0
    vertex -22.29903810567667 89.75 41.5
  endloop
endfacet
facet normal 0.7933533402912344 -0.6087614290087215 0.0
  outer loop
    vertex -22.29903810567667 89.75 43.0
    vertex -22.06066017177983 90.06066017177983 41.5
    vertex -22.06066017177983 90.06066017177983 43.0
  endloop
endfacet
facet normal 0.13052619222004555 -0.9914448613738113 0.0
  outer loop
    vertex -21.000000000000007 154.5 43.0
    vertex -21.388228567653787 154.44888873943358 41.5
    vertex -21.000000000000007 154.5 41.5
  endloop
endfacet
facet normal 0.13052619222004555 -0.9914448613738113 0.0
  outer loop
    vertex -21.388228567653787 154.44888873943358 41.5
    vertex -21.000000000000007 154.5 43.0
    vertex -21.388228567653787 154.44888873943358 43.0
  endloop
endfacet
facet normal -0.6087614290086991 -0.7933533402912517 -0.0
  outer loop
    vertex -19.939339828220184 154.06066017177983 43.0
    vertex -20.250000000000007 154.29903810567666 41.5
    vertex -19.939339828220184 154.06066017177983 41.5
  endloop
endfacet
facet normal -0.6087614290086991 -0.7933533402912517 -0.0
  outer loop
    vertex -20.250000000000007 154.29903810567666 41.5
    vertex -19.939339828220184 154.06066017177983 43.0
    vertex -20.250000000000007 154.29903810567666 43.0
  endloop
endfacet
facet normal -0.9914448613738114 -0.1305261922200446 -0.0
  outer loop
    vertex -19.551111260566405 89.38822856765378 43.0
    vertex -19.50000000000001 89.0 41.5
    vertex -19.50000000000001 89.0 43.0
  endloop
endfacet
facet normal -0.9914448613738114 -0.1305261922200446 -0.0
  outer loop
    vertex -19.50000000000001 89.0 41.5
    vertex -19.551111260566405 89.38822856765378 43.0
    vertex -19.551111260566405 89.38822856765378 41.5
  endloop
endfacet
facet normal -0.92387953251129 -0.3826834323650821 -0.0
  outer loop
    vertex -19.700961894323346 89.75 43.0
    vertex -19.551111260566405 89.38822856765378 41.5
    vertex -19.551111260566405 89.38822856765378 43.0
  endloop
endfacet
facet normal -0.92387953251129 -0.3826834323650821 -0.0
  outer loop
    vertex -19.551111260566405 89.38822856765378 41.5
    vertex -19.700961894323346 89.75 43.0
    vertex -19.700961894323346 89.75 41.5
  endloop
endfacet
facet normal 0.6087614290086991 0.7933533402912517 0.0
  outer loop
    vertex -22.06066017177983 151.9393398282202 43.0
    vertex -21.750000000000004 151.70096189432337 41.5
    vertex -22.06066017177983 151.9393398282202 41.5
  endloop
endfacet
facet normal 0.6087614290086991 0.7933533402912517 0.0
  outer loop
    vertex -21.750000000000004 151.70096189432337 41.5
    vertex -22.06066017177983 151.9393398282202 43.0
    vertex -21.750000000000004 151.70096189432337 43.0
  endloop
endfacet
facet normal -0.9914448613738113 0.13052619222004555 0.0
  outer loop
    vertex -19.50000000000001 153.0 43.0
    vertex -19.551111260566405 152.61177143234625 41.5
    vertex -19.551111260566405 152.61177143234625 43.0
  endloop
endfacet
facet normal -0.9914448613738113 0.13052619222004555 0.0
  outer loop
    vertex -19.551111260566405 152.61177143234625 41.5
    vertex -19.50000000000001 153.0 43.0
    vertex -19.50000000000001 153.0 41.5
  endloop
endfacet
facet normal 0.7933533402912395 0.608761429008715 1.3143569020736612e-31
  outer loop
    vertex -86.29903810567666 152.25 41.5
    vertex -86.06066017177983 151.9393398282202 43.0
    vertex -86.06066017177983 151.9393398282202 41.5
  endloop
endfacet
facet normal 0.7933533402912395 0.608761429008715 1.3143569020736612e-31
  outer loop
    vertex -86.06066017177983 151.9393398282202 43.0
    vertex -86.29903810567666 152.25 41.5
    vertex -86.29903810567666 152.25 43.0
  endloop
endfacet
facet normal -0.9914448613738113 0.13052619222004483 0.0
  outer loop
    vertex -19.50000000000001 89.0 43.0
    vertex -19.551111260566405 88.61177143234623 41.5
    vertex -19.551111260566405 88.61177143234623 43.0
  endloop
endfacet
facet normal -0.9914448613738113 0.13052619222004483 0.0
  outer loop
    vertex -19.551111260566405 88.61177143234623 41.5
    vertex -19.50000000000001 89.0 43.0
    vertex -19.50000000000001 89.0 41.5
  endloop
endfacet
facet normal 0.9914448613738114 0.13052619222004436 0.0
  outer loop
    vertex -22.500000000000004 89.0 41.5
    vertex -22.44888873943361 88.61177143234622 43.0
    vertex -22.44888873943361 88.61177143234622 41.5
  endloop
endfacet
facet normal 0.9914448613738114 0.13052619222004436 0.0
  outer loop
    vertex -22.44888873943361 88.61177143234622 43.0
    vertex -22.500000000000004 89.0 41.5
    vertex -22.500000000000004 89.0 43.0
  endloop
endfacet
facet normal 0.6087614290086991 -0.7933533402912517 0.0
  outer loop
    vertex -21.750000000000004 154.29903810567666 43.0
    vertex -22.06066017177983 154.06066017177983 41.5
    vertex -21.750000000000004 154.29903810567666 41.5
  endloop
endfacet
facet normal 0.6087614290086991 -0.7933533402912517 0.0
  outer loop
    vertex -22.06066017177983 154.06066017177983 41.5
    vertex -21.750000000000004 154.29903810567666 43.0
    vertex -22.06066017177983 154.06066017177983 43.0
  endloop
endfacet
facet normal 0.92387953251129 -0.3826834323650821 0.0
  outer loop
    vertex -22.29903810567667 89.75 41.5
    vertex -22.44888873943361 89.38822856765378 43.0
    vertex -22.44888873943361 89.38822856765378 41.5
  endloop
endfacet
facet normal 0.92387953251129 -0.3826834323650821 0.0
  outer loop
    vertex -22.44888873943361 89.38822856765378 43.0
    vertex -22.29903810567667 89.75 41.5
    vertex -22.29903810567667 89.75 43.0
  endloop
endfacet
facet normal -0.6087614290087161 -0.7933533402912386 -0.0
  outer loop
    vertex -19.939339828220184 90.06066017177983 43.0
    vertex -20.250000000000007 90.29903810567667 41.5
    vertex -19.939339828220184 90.06066017177983 41.5
  endloop
endfacet
facet normal -0.6087614290087161 -0.7933533402912386 -0.0
  outer loop
    vertex -20.250000000000007 90.29903810567667 41.5
    vertex -19.939339828220184 90.06066017177983 43.0
    vertex -20.250000000000007 90.29903810567667 43.0
  endloop
endfacet
facet normal 0.9914448613738113 0.13052619222004555 0.0
  outer loop
    vertex -22.500000000000004 153.0 41.5
    vertex -22.44888873943361 152.61177143234625 43.0
    vertex -22.44888873943361 152.61177143234625 41.5
  endloop
endfacet
facet normal 0.9914448613738113 0.13052619222004555 0.0
  outer loop
    vertex -22.44888873943361 152.61177143234625 43.0
    vertex -22.500000000000004 153.0 41.5
    vertex -22.500000000000004 153.0 43.0
  endloop
endfacet
facet normal -0.13052619222005263 0.9914448613738104 0.0
  outer loop
    vertex -21.000000000000007 87.50000000000001 43.0
    vertex -20.611771432346227 87.5511112605664 41.5
    vertex -21.000000000000007 87.50000000000001 41.5
  endloop
endfacet
facet normal -0.13052619222005263 0.9914448613738104 0.0
  outer loop
    vertex -20.611771432346227 87.5511112605664 41.5
    vertex -21.000000000000007 87.50000000000001 43.0
    vertex -20.611771432346227 87.5511112605664 43.0
  endloop
endfacet
facet normal 0.7933533402912517 -0.6087614290086991 0.0
  outer loop
    vertex -22.06066017177983 154.06066017177983 41.5
    vertex -22.299038105676658 153.75 43.0
    vertex -22.299038105676658 153.75 41.5
  endloop
endfacet
facet normal 0.7933533402912517 -0.6087614290086991 0.0
  outer loop
    vertex -22.299038105676658 153.75 43.0
    vertex -22.06066017177983 154.06066017177983 41.5
    vertex -22.06066017177983 154.06066017177983 43.0
  endloop
endfacet
facet normal -0.7933533402912517 -0.6087614290086991 -0.0
  outer loop
    vertex -19.939339828220184 154.06066017177983 43.0
    vertex -19.700961894323356 153.75 41.5
    vertex -19.700961894323356 153.75 43.0
  endloop
endfacet
facet normal -0.7933533402912517 -0.6087614290086991 -0.0
  outer loop
    vertex -19.700961894323356 153.75 41.5
    vertex -19.939339828220184 154.06066017177983 43.0
    vertex -19.939339828220184 154.06066017177983 41.5
  endloop
endfacet
facet normal -0.6087614290086991 0.7933533402912517 0.0
  outer loop
    vertex -20.250000000000007 151.70096189432337 43.0
    vertex -19.939339828220184 151.9393398282202 41.5
    vertex -20.250000000000007 151.70096189432337 41.5
  endloop
endfacet
facet normal -0.6087614290086991 0.7933533402912517 0.0
  outer loop
    vertex -19.939339828220184 151.9393398282202 41.5
    vertex -20.250000000000007 151.70096189432337 43.0
    vertex -19.939339828220184 151.9393398282202 43.0
  endloop
endfacet
facet normal -0.7933533402912378 0.6087614290087172 0.0
  outer loop
    vertex -19.700961894323346 152.25 43.0
    vertex -19.939339828220184 151.9393398282202 41.5
    vertex -19.939339828220184 151.9393398282202 43.0
  endloop
endfacet
facet normal -0.7933533402912378 0.6087614290087172 0.0
  outer loop
    vertex -19.939339828220184 151.9393398282202 41.5
    vertex -19.700961894323346 152.25 43.0
    vertex -19.700961894323346 152.25 41.5
  endloop
endfacet
facet normal 0.13052619222004555 0.9914448613738113 0.0
  outer loop
    vertex -21.388228567653787 151.5511112605664 43.0
    vertex -21.000000000000007 151.50000000000003 41.5
    vertex -21.388228567653787 151.5511112605664 41.5
  endloop
endfacet
facet normal 0.13052619222004555 0.9914448613738113 0.0
  outer loop
    vertex -21.000000000000007 151.50000000000003 41.5
    vertex -21.388228567653787 151.5511112605664 43.0
    vertex -21.000000000000007 151.50000000000003 43.0
  endloop
endfacet
facet normal 0.13052619222005263 0.9914448613738104 0.0
  outer loop
    vertex -21.388228567653787 87.5511112605664 43.0
    vertex -21.000000000000007 87.50000000000001 41.5
    vertex -21.388228567653787 87.5511112605664 41.5
  endloop
endfacet
facet normal 0.13052619222005263 0.9914448613738104 0.0
  outer loop
    vertex -21.000000000000007 87.50000000000001 41.5
    vertex -21.388228567653787 87.5511112605664 43.0
    vertex -21.000000000000007 87.50000000000001 43.0
  endloop
endfacet
facet normal -0.6087614290087155 0.7933533402912392 0.0
  outer loop
    vertex -20.250000000000007 87.70096189432334 43.0
    vertex -19.939339828220184 87.93933982822018 41.5
    vertex -20.250000000000007 87.70096189432334 41.5
  endloop
endfacet
facet normal -0.6087614290087155 0.7933533402912392 0.0
  outer loop
    vertex -19.939339828220184 87.93933982822018 41.5
    vertex -20.250000000000007 87.70096189432334 43.0
    vertex -19.939339828220184 87.93933982822018 43.0
  endloop
endfacet
facet normal 0.9914448613738105 0.13052619222005146 3.697371856687063e-32
  outer loop
    vertex -86.50000000000001 89.0 41.5
    vertex -86.4488887394336 88.61177143234622 43.0
    vertex -86.4488887394336 88.61177143234622 41.5
  endloop
endfacet
facet normal 0.9914448613738105 0.13052619222005146 3.697371856687063e-32
  outer loop
    vertex -86.4488887394336 88.61177143234622 43.0
    vertex -86.50000000000001 89.0 41.5
    vertex -86.50000000000001 89.0 43.0
  endloop
endfacet
facet normal 0.13052619222004483 0.9914448613738113 2.1624412847726937e-32
  outer loop
    vertex -85.3882285676538 151.5511112605664 43.0
    vertex -85.0 151.50000000000003 41.5
    vertex -85.3882285676538 151.5511112605664 41.5
  endloop
endfacet
facet normal 0.13052619222004483 0.9914448613738113 2.1624412847726937e-32
  outer loop
    vertex -85.0 151.50000000000003 41.5
    vertex -85.3882285676538 151.5511112605664 43.0
    vertex -85.0 151.50000000000003 43.0
  endloop
endfacet
facet normal 0.1305261922200544 -0.9914448613738102 0.0
  outer loop
    vertex -21.000000000000007 90.5 43.0
    vertex -21.388228567653787 90.44888873943361 41.5
    vertex -21.000000000000007 90.5 41.5
  endloop
endfacet
facet normal 0.1305261922200544 -0.9914448613738102 0.0
  outer loop
    vertex -21.388228567653787 90.44888873943361 41.5
    vertex -21.000000000000007 90.5 43.0
    vertex -21.388228567653787 90.44888873943361 43.0
  endloop
endfacet
facet normal -0.7933533402912354 0.6087614290087205 -1.0179399840098839e-31
  outer loop
    vertex -83.70096189432336 88.25000000000001 43.0
    vertex -83.93933982822018 87.93933982822018 41.5
    vertex -83.93933982822018 87.93933982822018 43.0
  endloop
endfacet
facet normal -0.7933533402912354 0.6087614290087205 -1.0179399840098839e-31
  outer loop
    vertex -83.93933982822018 87.93933982822018 41.5
    vertex -83.70096189432336 88.25000000000001 43.0
    vertex -83.70096189432336 88.25000000000001 41.5
  endloop
endfacet
facet normal -0.9914448613738105 -0.13052619222005168 -3.697371856687061e-32
  outer loop
    vertex -83.5511112605664 89.38822856765378 43.0
    vertex -83.5 89.0 41.5
    vertex -83.5 89.0 43.0
  endloop
endfacet
facet normal -0.9914448613738105 -0.13052619222005168 -3.697371856687061e-32
  outer loop
    vertex -83.5 89.0 41.5
    vertex -83.5511112605664 89.38822856765378 43.0
    vertex -83.5511112605664 89.38822856765378 41.5
  endloop
endfacet
facet normal 0.1305261922200519 0.9914448613738104 -9.376981557749189e-32
  outer loop
    vertex -85.3882285676538 87.5511112605664 43.0
    vertex -85.0 87.50000000000001 41.5
    vertex -85.3882285676538 87.5511112605664 41.5
  endloop
endfacet
facet normal 0.1305261922200519 0.9914448613738104 -9.376981557749189e-32
  outer loop
    vertex -85.0 87.50000000000001 41.5
    vertex -85.3882285676538 87.5511112605664 43.0
    vertex -85.0 87.50000000000001 43.0
  endloop
endfacet
facet normal 0.608761429008715 -0.7933533402912395 0.0
  outer loop
    vertex -21.750000000000004 90.29903810567666 43.0
    vertex -22.06066017177983 90.06066017177983 41.5
    vertex -21.750000000000004 90.29903810567666 41.5
  endloop
endfacet
facet normal 0.608761429008715 -0.7933533402912395 0.0
  outer loop
    vertex -22.06066017177983 90.06066017177983 41.5
    vertex -21.750000000000004 90.29903810567666 43.0
    vertex -22.06066017177983 90.06066017177983 43.0
  endloop
endfacet
facet normal 0.7933533402912343 0.6087614290087219 -2.1472187718710007e-32
  outer loop
    vertex -86.29903810567666 88.25000000000001 41.5
    vertex -86.06066017177983 87.93933982822018 43.0
    vertex -86.06066017177983 87.93933982822018 41.5
  endloop
endfacet
facet normal 0.7933533402912343 0.6087614290087219 -2.1472187718710007e-32
  outer loop
    vertex -86.06066017177983 87.93933982822018 43.0
    vertex -86.29903810567666 88.25000000000001 41.5
    vertex -86.29903810567666 88.25000000000001 43.0
  endloop
endfacet
facet normal -0.9914448613738113 -0.13052619222004555 -0.0
  outer loop
    vertex -19.551111260566405 153.38822856765378 43.0
    vertex -19.50000000000001 153.0 41.5
    vertex -19.50000000000001 153.0 43.0
  endloop
endfacet
facet normal -0.9914448613738113 -0.13052619222004555 -0.0
  outer loop
    vertex -19.50000000000001 153.0 41.5
    vertex -19.551111260566405 153.38822856765378 43.0
    vertex -19.551111260566405 153.38822856765378 41.5
  endloop
endfacet
facet normal -0.3826834323650898 -0.9238795325112867 7.416463864533251e-32
  outer loop
    vertex -84.25000000000001 90.29903810567667 43.0
    vertex -84.61177143234622 90.44888873943361 41.5
    vertex -84.25000000000001 90.29903810567667 41.5
  endloop
endfacet
facet normal -0.3826834323650898 -0.9238795325112867 7.416463864533251e-32
  outer loop
    vertex -84.61177143234622 90.44888873943361 41.5
    vertex -84.25000000000001 90.29903810567667 43.0
    vertex -84.61177143234622 90.44888873943361 43.0
  endloop
endfacet
facet normal 0.92387953251129 0.3826834323650821 0.0
  outer loop
    vertex -22.44888873943361 88.61177143234622 41.5
    vertex -22.29903810567667 88.25000000000001 43.0
    vertex -22.29903810567667 88.25000000000001 41.5
  endloop
endfacet
facet normal 0.92387953251129 0.3826834323650821 0.0
  outer loop
    vertex -22.29903810567667 88.25000000000001 43.0
    vertex -22.44888873943361 88.61177143234622 41.5
    vertex -22.44888873943361 88.61177143234622 43.0
  endloop
endfacet
facet normal 0.9238795325112867 0.3826834323650898 8.024182823496486e-33
  outer loop
    vertex -86.4488887394336 88.61177143234622 41.5
    vertex -86.29903810567666 88.25000000000001 43.0
    vertex -86.29903810567666 88.25000000000001 41.5
  endloop
endfacet
facet normal 0.9238795325112867 0.3826834323650898 8.024182823496486e-33
  outer loop
    vertex -86.29903810567666 88.25000000000001 43.0
    vertex -86.4488887394336 88.61177143234622 41.5
    vertex -86.4488887394336 88.61177143234622 43.0
  endloop
endfacet
facet normal -0.7933533402912344 0.6087614290087215 0.0
  outer loop
    vertex -19.700961894323346 88.25000000000001 43.0
    vertex -19.939339828220184 87.93933982822018 41.5
    vertex -19.939339828220184 87.93933982822018 43.0
  endloop
endfacet
facet normal -0.7933533402912344 0.6087614290087215 0.0
  outer loop
    vertex -19.939339828220184 87.93933982822018 41.5
    vertex -19.700961894323346 88.25000000000001 43.0
    vertex -19.700961894323346 88.25000000000001 41.5
  endloop
endfacet
facet normal 0.608761429008715 0.7933533402912395 0.0
  outer loop
    vertex -22.06066017177983 87.93933982822018 43.0
    vertex -21.750000000000004 87.70096189432334 41.5
    vertex -22.06066017177983 87.93933982822018 41.5
  endloop
endfacet
facet normal 0.608761429008715 0.7933533402912395 0.0
  outer loop
    vertex -21.750000000000004 87.70096189432334 41.5
    vertex -22.06066017177983 87.93933982822018 43.0
    vertex -21.750000000000004 87.70096189432334 43.0
  endloop
endfacet
facet normal 0.6087614290087198 0.7933533402912358 -4.950526415235416e-32
  outer loop
    vertex -86.06066017177983 87.93933982822018 43.0
    vertex -85.75000000000001 87.70096189432334 41.5
    vertex -86.06066017177983 87.93933982822018 41.5
  endloop
endfacet
facet normal 0.6087614290087198 0.7933533402912358 -4.950526415235416e-32
  outer loop
    vertex -85.75000000000001 87.70096189432334 41.5
    vertex -86.06066017177983 87.93933982822018 43.0
    vertex -85.75000000000001 87.70096189432334 43.0
  endloop
endfacet
facet normal 0.9238795325112874 -0.3826834323650882 8.551254682128236e-32
  outer loop
    vertex -86.29903810567666 89.75 41.5
    vertex -86.4488887394336 89.38822856765378 43.0
    vertex -86.4488887394336 89.38822856765378 41.5
  endloop
endfacet
facet normal 0.9238795325112874 -0.3826834323650882 8.551254682128236e-32
  outer loop
    vertex -86.4488887394336 89.38822856765378 43.0
    vertex -86.29903810567666 89.75 41.5
    vertex -86.29903810567666 89.75 43.0
  endloop
endfacet
facet normal -0.9914448613738104 0.1305261922200519 -6.340355649187149e-32
  outer loop
    vertex -83.5 89.0 43.0
    vertex -83.5511112605664 88.61177143234623 41.5
    vertex -83.5511112605664 88.61177143234623 43.0
  endloop
endfacet
facet normal -0.9914448613738104 0.1305261922200519 -6.340355649187149e-32
  outer loop
    vertex -83.5511112605664 88.61177143234623 41.5
    vertex -83.5 89.0 43.0
    vertex -83.5 89.0 41.5
  endloop
endfacet
facet normal -0.9238795325112867 0.3826834323650898 -8.551254682128248e-32
  outer loop
    vertex -83.5511112605664 88.61177143234623 43.0
    vertex -83.70096189432336 88.25000000000001 41.5
    vertex -83.70096189432336 88.25000000000001 43.0
  endloop
endfacet
facet normal -0.9238795325112867 0.3826834323650898 -8.551254682128248e-32
  outer loop
    vertex -83.70096189432336 88.25000000000001 41.5
    vertex -83.5511112605664 88.61177143234623 43.0
    vertex -83.5511112605664 88.61177143234623 41.5
  endloop
endfacet
facet normal 0.3826834323650885 0.9238795325112873 0.0
  outer loop
    vertex -21.750000000000004 87.70096189432334 43.0
    vertex -21.388228567653787 87.5511112605664 41.5
    vertex -21.750000000000004 87.70096189432334 41.5
  endloop
endfacet
facet normal 0.3826834323650885 0.9238795325112873 0.0
  outer loop
    vertex -21.388228567653787 87.5511112605664 41.5
    vertex -21.750000000000004 87.70096189432334 43.0
    vertex -21.388228567653787 87.5511112605664 43.0
  endloop
endfacet
facet normal 0.7933533402912354 -0.6087614290087205 1.0179399840098839e-31
  outer loop
    vertex -86.06066017177983 90.06066017177983 41.5
    vertex -86.29903810567666 89.75 43.0
    vertex -86.29903810567666 89.75 41.5
  endloop
endfacet
facet normal 0.7933533402912354 -0.6087614290087205 1.0179399840098839e-31
  outer loop
    vertex -86.29903810567666 89.75 43.0
    vertex -86.06066017177983 90.06066017177983 41.5
    vertex -86.06066017177983 90.06066017177983 43.0
  endloop
endfacet
facet normal 0.3826834323650898 0.9238795325112867 -7.416463864533251e-32
  outer loop
    vertex -85.75000000000001 87.70096189432334 43.0
    vertex -85.3882285676538 87.5511112605664 41.5
    vertex -85.75000000000001 87.70096189432334 41.5
  endloop
endfacet
facet normal 0.3826834323650898 0.9238795325112867 -7.416463864533251e-32
  outer loop
    vertex -85.3882285676538 87.5511112605664 41.5
    vertex -85.75000000000001 87.70096189432334 43.0
    vertex -85.3882285676538 87.5511112605664 43.0
  endloop
endfacet
facet normal 0.3826834323650885 -0.9238795325112873 0.0
  outer loop
    vertex -21.388228567653787 90.44888873943361 43.0
    vertex -21.750000000000004 90.29903810567666 41.5
    vertex -21.388228567653787 90.44888873943361 41.5
  endloop
endfacet
facet normal 0.3826834323650885 -0.9238795325112873 0.0
  outer loop
    vertex -21.750000000000004 90.29903810567666 41.5
    vertex -21.388228567653787 90.44888873943361 43.0
    vertex -21.750000000000004 90.29903810567666 43.0
  endloop
endfacet
facet normal -0.9238795325112803 -0.3826834323651054 -0.0
  outer loop
    vertex -19.700961894323356 153.75 43.0
    vertex -19.551111260566405 153.38822856765378 41.5
    vertex -19.551111260566405 153.38822856765378 43.0
  endloop
endfacet
facet normal -0.9238795325112803 -0.3826834323651054 -0.0
  outer loop
    vertex -19.551111260566405 153.38822856765378 41.5
    vertex -19.700961894323356 153.75 43.0
    vertex -19.700961894323356 153.75 41.5
  endloop
endfacet
facet normal 0.3826834323651073 0.9238795325112795 6.339957054364622e-32
  outer loop
    vertex -85.75000000000001 151.70096189432337 43.0
    vertex -85.3882285676538 151.5511112605664 41.5
    vertex -85.75000000000001 151.70096189432337 41.5
  endloop
endfacet
facet normal 0.3826834323651073 0.9238795325112795 6.339957054364622e-32
  outer loop
    vertex -85.3882285676538 151.5511112605664 41.5
    vertex -85.75000000000001 151.70096189432337 43.0
    vertex -85.3882285676538 151.5511112605664 43.0
  endloop
endfacet
facet normal 0.6087614290087202 -0.7933533402912355 1.1113835721220315e-31
  outer loop
    vertex -85.75000000000001 90.29903810567666 43.0
    vertex -86.06066017177983 90.06066017177983 41.5
    vertex -85.75000000000001 90.29903810567666 41.5
  endloop
endfacet
facet normal 0.6087614290087202 -0.7933533402912355 1.1113835721220315e-31
  outer loop
    vertex -86.06066017177983 90.06066017177983 41.5
    vertex -85.75000000000001 90.29903810567666 43.0
    vertex -86.06066017177983 90.06066017177983 43.0
  endloop
endfacet
facet normal 0.7933533402912392 -0.6087614290087155 1.3143569020736604e-31
  outer loop
    vertex -86.06066017177983 154.06066017177983 41.5
    vertex -86.29903810567666 153.75 43.0
    vertex -86.29903810567666 153.75 41.5
  endloop
endfacet
facet normal 0.7933533402912392 -0.6087614290087155 1.3143569020736604e-31
  outer loop
    vertex -86.29903810567666 153.75 43.0
    vertex -86.06066017177983 154.06066017177983 41.5
    vertex -86.06066017177983 154.06066017177983 43.0
  endloop
endfacet
facet normal -0.7933533402912337 -0.6087614290087224 -0.0
  outer loop
    vertex -19.939339828220184 90.06066017177983 43.0
    vertex -19.700961894323346 89.75 41.5
    vertex -19.700961894323346 89.75 43.0
  endloop
endfacet
facet normal -0.7933533402912337 -0.6087614290087224 -0.0
  outer loop
    vertex -19.700961894323346 89.75 41.5
    vertex -19.939339828220184 90.06066017177983 43.0
    vertex -19.939339828220184 90.06066017177983 41.5
  endloop
endfacet
facet normal 0.9914448613738113 -0.13052619222004483 0.0
  outer loop
    vertex -22.44888873943361 89.38822856765378 41.5
    vertex -22.500000000000004 89.0 43.0
    vertex -22.500000000000004 89.0 41.5
  endloop
endfacet
facet normal 0.9914448613738113 -0.13052619222004483 0.0
  outer loop
    vertex -22.500000000000004 89.0 43.0
    vertex -22.44888873943361 89.38822856765378 41.5
    vertex -22.44888873943361 89.38822856765378 43.0
  endloop
endfacet
facet normal -0.3826834323650899 0.9238795325112867 -1.1290882064422549e-31
  outer loop
    vertex -84.61177143234622 87.5511112605664 43.0
    vertex -84.25 87.70096189432334 41.5
    vertex -84.61177143234622 87.5511112605664 41.5
  endloop
endfacet
facet normal -0.3826834323650899 0.9238795325112867 -1.1290882064422549e-31
  outer loop
    vertex -84.25 87.70096189432334 41.5
    vertex -84.61177143234622 87.5511112605664 43.0
    vertex -84.25 87.70096189432334 43.0
  endloop
endfacet
facet normal -0.92387953251129 0.3826834323650821 0.0
  outer loop
    vertex -19.551111260566405 88.61177143234623 43.0
    vertex -19.700961894323346 88.25000000000001 41.5
    vertex -19.700961894323346 88.25000000000001 43.0
  endloop
endfacet
facet normal -0.92387953251129 0.3826834323650821 0.0
  outer loop
    vertex -19.700961894323346 88.25000000000001 41.5
    vertex -19.551111260566405 88.61177143234623 43.0
    vertex -19.551111260566405 88.61177143234623 41.5
  endloop
endfacet
facet normal -0.3826834323650892 0.923879532511287 0.0
  outer loop
    vertex -20.611771432346227 87.5511112605664 43.0
    vertex -20.250000000000007 87.70096189432334 41.5
    vertex -20.611771432346227 87.5511112605664 41.5
  endloop
endfacet
facet normal -0.3826834323650892 0.923879532511287 0.0
  outer loop
    vertex -20.250000000000007 87.70096189432334 41.5
    vertex -20.611771432346227 87.5511112605664 43.0
    vertex -20.250000000000007 87.70096189432334 43.0
  endloop
endfacet
facet normal -0.3826834323650885 -0.9238795325112873 -0.0
  outer loop
    vertex -20.250000000000007 90.29903810567667 43.0
    vertex -20.611771432346227 90.44888873943361 41.5
    vertex -20.250000000000007 90.29903810567667 41.5
  endloop
endfacet
facet normal -0.3826834323650885 -0.9238795325112873 -0.0
  outer loop
    vertex -20.611771432346227 90.44888873943361 41.5
    vertex -20.250000000000007 90.29903810567667 43.0
    vertex -20.611771432346227 90.44888873943361 43.0
  endloop
endfacet
facet normal -0.13052619222004508 -0.9914448613738114 -2.162441284772698e-32
  outer loop
    vertex -84.61177143234622 154.44888873943358 43.0
    vertex -85.0 154.5 41.5
    vertex -84.61177143234622 154.44888873943358 41.5
  endloop
endfacet
facet normal -0.13052619222004508 -0.9914448613738114 -2.162441284772698e-32
  outer loop
    vertex -85.0 154.5 41.5
    vertex -84.61177143234622 154.44888873943358 43.0
    vertex -85.0 154.5 43.0
  endloop
endfacet
facet normal 0.6087614290087048 0.7933533402912475 1.0085415227975082e-31
  outer loop
    vertex -86.06066017177983 151.9393398282202 43.0
    vertex -85.75000000000001 151.70096189432337 41.5
    vertex -86.06066017177983 151.9393398282202 41.5
  endloop
endfacet
facet normal 0.6087614290087048 0.7933533402912475 1.0085415227975082e-31
  outer loop
    vertex -85.75000000000001 151.70096189432337 41.5
    vertex -86.06066017177983 151.9393398282202 43.0
    vertex -85.75000000000001 151.70096189432337 43.0
  endloop
endfacet
facet normal -0.7933533402912395 -0.608761429008715 -1.3143569020736612e-31
  outer loop
    vertex -83.93933982822018 154.06066017177983 43.0
    vertex -83.70096189432336 153.75 41.5
    vertex -83.70096189432336 153.75 43.0
  endloop
endfacet
facet normal -0.7933533402912395 -0.608761429008715 -1.3143569020736612e-31
  outer loop
    vertex -83.70096189432336 153.75 41.5
    vertex -83.93933982822018 154.06066017177983 43.0
    vertex -83.93933982822018 154.06066017177983 41.5
  endloop
endfacet
facet normal -0.9914448613738104 -0.13052619222005263 -1.6425372282339671e-31
  outer loop
    vertex -83.55111126056642 153.38822856765378 43.0
    vertex -83.5 153.0 41.5
    vertex -83.5 153.0 43.0
  endloop
endfacet
facet normal -0.9914448613738104 -0.13052619222005263 -1.6425372282339671e-31
  outer loop
    vertex -83.5 153.0 41.5
    vertex -83.55111126056642 153.38822856765378 43.0
    vertex -83.55111126056642 153.38822856765378 41.5
  endloop
endfacet
facet normal -0.9914448613738104 0.13052619222005263 -1.6425372282339671e-31
  outer loop
    vertex -83.5 153.0 43.0
    vertex -83.55111126056642 152.61177143234625 41.5
    vertex -83.55111126056642 152.61177143234625 43.0
  endloop
endfacet
facet normal -0.9914448613738104 0.13052619222005263 -1.6425372282339671e-31
  outer loop
    vertex -83.55111126056642 152.61177143234625 41.5
    vertex -83.5 153.0 43.0
    vertex -83.5 153.0 41.5
  endloop
endfacet
facet normal -0.3826834323651073 -0.9238795325112795 -6.339957054364622e-32
  outer loop
    vertex -84.25000000000001 154.29903810567666 43.0
    vertex -84.61177143234622 154.44888873943358 41.5
    vertex -84.25000000000001 154.29903810567666 41.5
  endloop
endfacet
facet normal -0.3826834323651073 -0.9238795325112795 -6.339957054364622e-32
  outer loop
    vertex -84.61177143234622 154.44888873943358 41.5
    vertex -84.25000000000001 154.29903810567666 43.0
    vertex -84.61177143234622 154.44888873943358 43.0
  endloop
endfacet
facet normal -0.9238795325112873 -0.3826834323650885 -1.5306010305509351e-31
  outer loop
    vertex -83.70096189432336 153.75 43.0
    vertex -83.55111126056642 153.38822856765378 41.5
    vertex -83.55111126056642 153.38822856765378 43.0
  endloop
endfacet
facet normal -0.9238795325112873 -0.3826834323650885 -1.5306010305509351e-31
  outer loop
    vertex -83.55111126056642 153.38822856765378 41.5
    vertex -83.70096189432336 153.75 43.0
    vertex -83.70096189432336 153.75 41.5
  endloop
endfacet
facet normal 0.6087614290087057 -0.7933533402912467 1.008541522797509e-31
  outer loop
    vertex -85.75000000000001 154.29903810567666 43.0
    vertex -86.06066017177983 154.06066017177983 41.5
    vertex -85.75000000000001 154.29903810567666 41.5
  endloop
endfacet
facet normal 0.6087614290087057 -0.7933533402912467 1.008541522797509e-31
  outer loop
    vertex -86.06066017177983 154.06066017177983 41.5
    vertex -85.75000000000001 154.29903810567666 43.0
    vertex -86.06066017177983 154.06066017177983 43.0
  endloop
endfacet
facet normal -0.6087614290087052 0.793353340291247 -1.0085415227975084e-31
  outer loop
    vertex -84.25000000000001 151.70096189432337 43.0
    vertex -83.93933982822018 151.9393398282202 41.5
    vertex -84.25000000000001 151.70096189432337 41.5
  endloop
endfacet
facet normal -0.6087614290087052 0.793353340291247 -1.0085415227975084e-31
  outer loop
    vertex -83.93933982822018 151.9393398282202 41.5
    vertex -84.25000000000001 151.70096189432337 43.0
    vertex -83.93933982822018 151.9393398282202 43.0
  endloop
endfacet
facet normal -0.13052619222005168 -0.9914448613738105 9.37698155774919e-32
  outer loop
    vertex -84.61177143234622 90.44888873943361 43.0
    vertex -85.0 90.5 41.5
    vertex -84.61177143234622 90.44888873943361 41.5
  endloop
endfacet
facet normal -0.13052619222005168 -0.9914448613738105 9.37698155774919e-32
  outer loop
    vertex -85.0 90.5 41.5
    vertex -84.61177143234622 90.44888873943361 43.0
    vertex -85.0 90.5 43.0
  endloop
endfacet
facet normal -0.6087614290087213 -0.7933533402912346 4.950526415235396e-32
  outer loop
    vertex -83.93933982822018 90.06066017177983 43.0
    vertex -84.25000000000001 90.29903810567667 41.5
    vertex -83.93933982822018 90.06066017177983 41.5
  endloop
endfacet
facet normal -0.6087614290087213 -0.7933533402912346 4.950526415235396e-32
  outer loop
    vertex -84.25000000000001 90.29903810567667 41.5
    vertex -83.93933982822018 90.06066017177983 43.0
    vertex -84.25000000000001 90.29903810567667 43.0
  endloop
endfacet
facet normal -0.13052619222005168 0.9914448613738105 -1.0698473453999232e-31
  outer loop
    vertex -85.0 87.50000000000001 43.0
    vertex -84.61177143234622 87.5511112605664 41.5
    vertex -85.0 87.50000000000001 41.5
  endloop
endfacet
facet normal -0.13052619222005168 0.9914448613738105 -1.0698473453999232e-31
  outer loop
    vertex -84.61177143234622 87.5511112605664 41.5
    vertex -85.0 87.50000000000001 43.0
    vertex -84.61177143234622 87.5511112605664 43.0
  endloop
endfacet
facet normal -0.1305261922200446 0.9914448613738114 -2.1624412847726828e-32
  outer loop
    vertex -85.0 151.50000000000003 43.0
    vertex -84.61177143234622 151.5511112605664 41.5
    vertex -85.0 151.50000000000003 41.5
  endloop
endfacet
facet normal -0.1305261922200446 0.9914448613738114 -2.1624412847726828e-32
  outer loop
    vertex -84.61177143234622 151.5511112605664 41.5
    vertex -85.0 151.50000000000003 43.0
    vertex -84.61177143234622 151.5511112605664 43.0
  endloop
endfacet
facet normal 0.9238795325112875 0.3826834323650877 1.5306010305509353e-31
  outer loop
    vertex -86.4488887394336 152.61177143234625 41.5
    vertex -86.29903810567666 152.25 43.0
    vertex -86.29903810567666 152.25 41.5
  endloop
endfacet
facet normal 0.9238795325112875 0.3826834323650877 1.5306010305509353e-31
  outer loop
    vertex -86.29903810567666 152.25 43.0
    vertex -86.4488887394336 152.61177143234625 41.5
    vertex -86.4488887394336 152.61177143234625 43.0
  endloop
endfacet
facet normal -0.7933533402912395 0.608761429008715 -1.3143569020736608e-31
  outer loop
    vertex -83.70096189432336 152.25 43.0
    vertex -83.93933982822018 151.9393398282202 41.5
    vertex -83.93933982822018 151.9393398282202 43.0
  endloop
endfacet
facet normal -0.7933533402912395 0.608761429008715 -1.3143569020736608e-31
  outer loop
    vertex -83.93933982822018 151.9393398282202 41.5
    vertex -83.70096189432336 152.25 43.0
    vertex -83.70096189432336 152.25 41.5
  endloop
endfacet
facet normal -0.9238795325112867 -0.3826834323650898 -8.024182823496486e-33
  outer loop
    vertex -83.70096189432336 89.75 43.0
    vertex -83.5511112605664 89.38822856765378 41.5
    vertex -83.5511112605664 89.38822856765378 43.0
  endloop
endfacet
facet normal -0.9238795325112867 -0.3826834323650898 -8.024182823496486e-33
  outer loop
    vertex -83.5511112605664 89.38822856765378 41.5
    vertex -83.70096189432336 89.75 43.0
    vertex -83.70096189432336 89.75 41.5
  endloop
endfacet
facet normal 0.923879532511288 -0.38268343236508695 1.5306010305509356e-31
  outer loop
    vertex -86.29903810567666 153.75 41.5
    vertex -86.4488887394336 153.38822856765378 43.0
    vertex -86.4488887394336 153.38822856765378 41.5
  endloop
endfacet
facet normal 0.923879532511288 -0.38268343236508695 1.5306010305509356e-31
  outer loop
    vertex -86.4488887394336 153.38822856765378 43.0
    vertex -86.29903810567666 153.75 41.5
    vertex -86.29903810567666 153.75 43.0
  endloop
endfacet
facet normal -0.7933533402912346 -0.6087614290087213 2.1472187718709927e-32
  outer loop
    vertex -83.93933982822018 90.06066017177983 43.0
    vertex -83.70096189432336 89.75 41.5
    vertex -83.70096189432336 89.75 43.0
  endloop
endfacet
facet normal -0.7933533402912346 -0.6087614290087213 2.1472187718709927e-32
  outer loop
    vertex -83.70096189432336 89.75 41.5
    vertex -83.93933982822018 90.06066017177983 43.0
    vertex -83.93933982822018 90.06066017177983 41.5
  endloop
endfacet
facet normal 0.9914448613738104 0.13052619222005263 1.6425372282339671e-31
  outer loop
    vertex -86.5 153.0 41.5
    vertex -86.4488887394336 152.61177143234625 43.0
    vertex -86.4488887394336 152.61177143234625 41.5
  endloop
endfacet
facet normal 0.9914448613738104 0.13052619222005263 1.6425372282339671e-31
  outer loop
    vertex -86.4488887394336 152.61177143234625 43.0
    vertex -86.5 153.0 41.5
    vertex -86.5 153.0 43.0
  endloop
endfacet
facet normal -0.6087614290087215 0.7933533402912344 -1.111383572122031e-31
  outer loop
    vertex -84.25 87.70096189432334 43.0
    vertex -83.93933982822018 87.93933982822018 41.5
    vertex -84.25 87.70096189432334 41.5
  endloop
endfacet
facet normal -0.6087614290087215 0.7933533402912344 -1.111383572122031e-31
  outer loop
    vertex -83.93933982822018 87.93933982822018 41.5
    vertex -84.25 87.70096189432334 43.0
    vertex -83.93933982822018 87.93933982822018 43.0
  endloop
endfacet
facet normal 0.9914448613738104 -0.1305261922200519 6.340355649187149e-32
  outer loop
    vertex -86.4488887394336 89.38822856765378 41.5
    vertex -86.50000000000001 89.0 43.0
    vertex -86.50000000000001 89.0 41.5
  endloop
endfacet
facet normal 0.9914448613738104 -0.1305261922200519 6.340355649187149e-32
  outer loop
    vertex -86.50000000000001 89.0 43.0
    vertex -86.4488887394336 89.38822856765378 41.5
    vertex -86.4488887394336 89.38822856765378 43.0
  endloop
endfacet
facet normal 0.13052619222004483 -0.9914448613738113 2.1624412847726863e-32
  outer loop
    vertex -85.0 154.5 43.0
    vertex -85.3882285676538 154.44888873943358 41.5
    vertex -85.0 154.5 41.5
  endloop
endfacet
facet normal 0.13052619222004483 -0.9914448613738113 2.1624412847726863e-32
  outer loop
    vertex -85.3882285676538 154.44888873943358 41.5
    vertex -85.0 154.5 43.0
    vertex -85.3882285676538 154.44888873943358 43.0
  endloop
endfacet
facet normal 0.38268343236510666 -0.9238795325112797 6.339957054364605e-32
  outer loop
    vertex -85.3882285676538 154.44888873943358 43.0
    vertex -85.75000000000001 154.29903810567666 41.5
    vertex -85.3882285676538 154.44888873943358 41.5
  endloop
endfacet
facet normal 0.38268343236510666 -0.9238795325112797 6.339957054364605e-32
  outer loop
    vertex -85.75000000000001 154.29903810567666 41.5
    vertex -85.3882285676538 154.44888873943358 43.0
    vertex -85.75000000000001 154.29903810567666 43.0
  endloop
endfacet
facet normal 0.9914448613738104 -0.13052619222005263 1.6425372282339671e-31
  outer loop
    vertex -86.4488887394336 153.38822856765378 41.5
    vertex -86.5 153.0 43.0
    vertex -86.5 153.0 41.5
  endloop
endfacet
facet normal 0.9914448613738104 -0.13052619222005263 1.6425372282339671e-31
  outer loop
    vertex -86.5 153.0 43.0
    vertex -86.4488887394336 153.38822856765378 41.5
    vertex -86.4488887394336 153.38822856765378 43.0
  endloop
endfacet
facet normal -0.6087614290087043 -0.7933533402912477 -1.0085415227975073e-31
  outer loop
    vertex -83.93933982822018 154.06066017177983 43.0
    vertex -84.25000000000001 154.29903810567666 41.5
    vertex -83.93933982822018 154.06066017177983 41.5
  endloop
endfacet
facet normal -0.6087614290087043 -0.7933533402912477 -1.0085415227975073e-31
  outer loop
    vertex -84.25000000000001 154.29903810567666 41.5
    vertex -83.93933982822018 154.06066017177983 43.0
    vertex -84.25000000000001 154.29903810567666 43.0
  endloop
endfacet
facet normal -0.3826834323651073 0.9238795325112795 -6.339957054364616e-32
  outer loop
    vertex -84.61177143234622 151.5511112605664 43.0
    vertex -84.25000000000001 151.70096189432337 41.5
    vertex -84.61177143234622 151.5511112605664 41.5
  endloop
endfacet
facet normal -0.3826834323651073 0.9238795325112795 -6.339957054364616e-32
  outer loop
    vertex -84.25000000000001 151.70096189432337 41.5
    vertex -84.61177143234622 151.5511112605664 43.0
    vertex -84.25000000000001 151.70096189432337 43.0
  endloop
endfacet
facet normal -0.923879532511288 0.38268343236508695 -1.5306010305509356e-31
  outer loop
    vertex -83.55111126056642 152.61177143234625 43.0
    vertex -83.70096189432336 152.25 41.5
    vertex -83.70096189432336 152.25 43.0
  endloop
endfacet
facet normal -0.923879532511288 0.38268343236508695 -1.5306010305509356e-31
  outer loop
    vertex -83.70096189432336 152.25 41.5
    vertex -83.55111126056642 152.61177143234625 43.0
    vertex -83.55111126056642 152.61177143234625 41.5
  endloop
endfacet
facet normal 0.130526192220053 -0.9914448613738104 1.069847345399924e-31
  outer loop
    vertex -85.0 90.5 43.0
    vertex -85.3882285676538 90.44888873943361 41.5
    vertex -85.0 90.5 41.5
  endloop
endfacet
facet normal 0.130526192220053 -0.9914448613738104 1.069847345399924e-31
  outer loop
    vertex -85.3882285676538 90.44888873943361 41.5
    vertex -85.0 90.5 43.0
    vertex -85.3882285676538 90.44888873943361 43.0
  endloop
endfacet
facet normal 0.38268343236509045 -0.9238795325112866 1.129088206442255e-31
  outer loop
    vertex -85.3882285676538 90.44888873943361 43.0
    vertex -85.75000000000001 90.29903810567666 41.5
    vertex -85.3882285676538 90.44888873943361 41.5
  endloop
endfacet
facet normal 0.38268343236509045 -0.9238795325112866 1.129088206442255e-31
  outer loop
    vertex -85.75000000000001 90.29903810567666 41.5
    vertex -85.3882285676538 90.44888873943361 43.0
    vertex -85.75000000000001 90.29903810567666 43.0
  endloop
endfacet
facet normal 0.0 0.0 1.0
  outer loop
    vertex -89.0 85.0 43.0
    vertex -86.50000000000001 89.0 43.0
    vertex -89.0 157.0 43.0
  endloop
endfacet
facet normal 0.0 0.0 1.0
  outer loop
    vertex -86.50000000000001 89.0 43.0
    vertex -89.0 85.0 43.0
    vertex -86.4488887394336 88.61177143234622 43.0
  endloop
endfacet
facet normal 0.0 0.0 1.0
  outer loop
    vertex -86.4488887394336 88.61177143234622 43.0
    vertex -89.0 85.0 43.0
    vertex -86.29903810567666 88.25000000000001 43.0
  endloop
endfacet
facet normal 0.0 0.0 1.0
  outer loop
    vertex -86.29903810567666 88.25000000000001 43.0
    vertex -89.0 85.0 43.0
    vertex -86.06066017177983 87.93933982822018 43.0
  endloop
endfacet
facet normal 0.0 0.0 1.0
  outer loop
    vertex -86.06066017177983 87.93933982822018 43.0
    vertex -89.0 85.0 43.0
    vertex -85.75000000000001 87.70096189432334 43.0
  endloop
endfacet
facet normal 0.0 0.0 1.0
  outer loop
    vertex -85.75000000000001 87.70096189432334 43.0
    vertex -89.0 85.0 43.0
    vertex -85.3882285676538 87.5511112605664 43.0
  endloop
endfacet
facet normal 0.0 0.0 1.0
  outer loop
    vertex -85.3882285676538 87.5511112605664 43.0
    vertex -89.0 85.0 43.0
    vertex -85.0 87.50000000000001 43.0
  endloop
endfacet
facet normal 0.0 0.0 1.0
  outer loop
    vertex -85.0 87.50000000000001 43.0
    vertex -89.0 85.0 43.0
    vertex -17.000000000000004 85.0 43.0
  endloop
endfacet
facet normal 0.0 0.0 1.0
  outer loop
    vertex -85.0 87.50000000000001 43.0
    vertex -17.000000000000004 85.0 43.0
    vertex -84.61177143234622 87.5511112605664 43.0
  endloop
endfacet
facet normal 0.0 0.0 1.0
  outer loop
    vertex -84.61177143234622 87.5511112605664 43.0
    vertex -17.000000000000004 85.0 43.0
    vertex -84.25 87.70096189432334 43.0
  endloop
endfacet
facet normal 0.0 0.0 1.0
  outer loop
    vertex -84.25 87.70096189432334 43.0
    vertex -17.000000000000004 85.0 43.0
    vertex -83.93933982822018 87.93933982822018 43.0
  endloop
endfacet
facet normal 0.0 0.0 1.0
  outer loop
    vertex -83.93933982822018 87.93933982822018 43.0
    vertex -17.000000000000004 85.0 43.0
    vertex -83.70096189432336 88.25000000000001 43.0
  endloop
endfacet
facet normal 0.0 0.0 1.0
  outer loop
    vertex -83.70096189432336 88.25000000000001 43.0
    vertex -17.000000000000004 85.0 43.0
    vertex -83.5511112605664 88.61177143234623 43.0
  endloop
endfacet
facet normal 0.0 0.0 1.0
  outer loop
    vertex -83.5511112605664 88.61177143234623 43.0
    vertex -17.000000000000004 85.0 43.0
    vertex -83.5 89.0 43.0
  endloop
endfacet
facet normal 0.0 0.0 1.0
  outer loop
    vertex -83.5 89.0 43.0
    vertex -17.000000000000004 85.0 43.0
    vertex -21.750000000000004 87.70096189432334 43.0
  endloop
endfacet
facet normal 0.0 0.0 1.0
  outer loop
    vertex -83.5 89.0 43.0
    vertex -21.750000000000004 87.70096189432334 43.0
    vertex -22.06066017177983 87.93933982822018 43.0
  endloop
endfacet
facet normal 0.0 0.0 1.0
  outer loop
    vertex -83.5 89.0 43.0
    vertex -22.06066017177983 87.93933982822018 43.0
    vertex -83.5 153.0 43.0
  endloop
endfacet
facet normal 0.0 0.0 1.0
  outer loop
    vertex -83.5 153.0 43.0
    vertex -22.06066017177983 87.93933982822018 43.0
    vertex -22.29903810567667 88.25000000000001 43.0
  endloop
endfacet
facet normal 0.0 0.0 1.0
  outer loop
    vertex -83.5 153.0 43.0
    vertex -22.29903810567667 88.25000000000001 43.0
    vertex -22.44888873943361 88.61177143234622 43.0
  endloop
endfacet
facet normal 0.0 0.0 1.0
  outer loop
    vertex -83.5 153.0 43.0
    vertex -22.44888873943361 88.61177143234622 43.0
    vertex -22.500000000000004 89.0 43.0
  endloop
endfacet
facet normal 0.0 0.0 1.0
  outer loop
    vertex -21.750000000000004 87.70096189432334 43.0
    vertex -17.000000000000004 85.0 43.0
    vertex -21.388228567653787 87.5511112605664 43.0
  endloop
endfacet
facet normal 0.0 0.0 1.0
  outer loop
    vertex -21.388228567653787 87.5511112605664 43.0
    vertex -17.000000000000004 85.0 43.0
    vertex -21.000000000000007 87.50000000000001 43.0
  endloop
endfacet
facet normal 0.0 0.0 1.0
  outer loop
    vertex -21.000000000000007 87.50000000000001 43.0
    vertex -17.000000000000004 85.0 43.0
    vertex -20.611771432346227 87.5511112605664 43.0
  endloop
endfacet
facet normal 0.0 0.0 1.0
  outer loop
    vertex -20.611771432346227 87.5511112605664 43.0
    vertex -17.000000000000004 85.0 43.0
    vertex -20.250000000000007 87.70096189432334 43.0
  endloop
endfacet
facet normal 0.0 0.0 1.0
  outer loop
    vertex -20.250000000000007 87.70096189432334 43.0
    vertex -17.000000000000004 85.0 43.0
    vertex -19.939339828220184 87.93933982822018 43.0
  endloop
endfacet
facet normal 0.0 0.0 1.0
  outer loop
    vertex -19.939339828220184 87.93933982822018 43.0
    vertex -17.000000000000004 85.0 43.0
    vertex -19.700961894323346 88.25000000000001 43.0
  endloop
endfacet
facet normal 0.0 0.0 1.0
  outer loop
    vertex -19.700961894323346 88.25000000000001 43.0
    vertex -17.000000000000004 85.0 43.0
    vertex -19.551111260566405 88.61177143234623 43.0
  endloop
endfacet
facet normal 0.0 0.0 1.0
  outer loop
    vertex -19.551111260566405 88.61177143234623 43.0
    vertex -17.000000000000004 85.0 43.0
    vertex -19.50000000000001 89.0 43.0
  endloop
endfacet
facet normal 0.0 0.0 1.0
  outer loop
    vertex -19.50000000000001 89.0 43.0
    vertex -17.000000000000004 85.0 43.0
    vertex -19.50000000000001 153.0 43.0
  endloop
endfacet
facet normal 0.0 0.0 1.0
  outer loop
    vertex -89.0 157.0 43.0
    vertex -85.0 154.5 43.0
    vertex -17.000000000000004 157.0 43.0
  endloop
endfacet
facet normal 0.0 0.0 1.0
  outer loop
    vertex -85.0 154.5 43.0
    vertex -89.0 157.0 43.0
    vertex -85.3882285676538 154.44888873943358 43.0
  endloop
endfacet
facet normal 0.0 0.0 1.0
  outer loop
    vertex -85.3882285676538 154.44888873943358 43.0
    vertex -89.0 157.0 43.0
    vertex -85.75000000000001 154.29903810567666 43.0
  endloop
endfacet
facet normal 0.0 0.0 1.0
  outer loop
    vertex -85.75000000000001 154.29903810567666 43.0
    vertex -89.0 157.0 43.0
    vertex -86.06066017177983 154.06066017177983 43.0
  endloop
endfacet
facet normal 0.0 0.0 1.0
  outer loop
    vertex -86.06066017177983 154.06066017177983 43.0
    vertex -89.0 157.0 43.0
    vertex -86.29903810567666 153.75 43.0
  endloop
endfacet
facet normal 0.0 0.0 1.0
  outer loop
    vertex -86.29903810567666 153.75 43.0
    vertex -89.0 157.0 43.0
    vertex -86.4488887394336 153.38822856765378 43.0
  endloop
endfacet
facet normal 0.0 0.0 1.0
  outer loop
    vertex -86.4488887394336 153.38822856765378 43.0
    vertex -89.0 157.0 43.0
    vertex -86.5 153.0 43.0
  endloop
endfacet
facet normal 0.0 0.0 1.0
  outer loop
    vertex -86.5 153.0 43.0
    vertex -89.0 157.0 43.0
    vertex -86.50000000000001 89.0 43.0
  endloop
endfacet
facet normal 0.0 0.0 1.0
  outer loop
    vertex -17.000000000000004 157.0 43.0
    vertex -85.0 154.5 43.0
    vertex -84.61177143234622 154.44888873943358 43.0
  endloop
endfacet
facet normal 0.0 0.0 1.0
  outer loop
    vertex -17.000000000000004 157.0 43.0
    vertex -84.61177143234622 154.44888873943358 43.0
    vertex -84.25000000000001 154.29903810567666 43.0
  endloop
endfacet
facet normal 0.0 0.0 1.0
  outer loop
    vertex -17.000000000000004 157.0 43.0
    vertex -84.25000000000001 154.29903810567666 43.0
    vertex -83.93933982822018 154.06066017177983 43.0
  endloop
endfacet
facet normal 0.0 0.0 1.0
  outer loop
    vertex -17.000000000000004 157.0 43.0
    vertex -83.93933982822018 154.06066017177983 43.0
    vertex -83.70096189432336 153.75 43.0
  endloop
endfacet
facet normal 0.0 0.0 1.0
  outer loop
    vertex -17.000000000000004 157.0 43.0
    vertex -83.70096189432336 153.75 43.0
    vertex -83.55111126056642 153.38822856765378 43.0
  endloop
endfacet
facet normal 0.0 0.0 1.0
  outer loop
    vertex -17.000000000000004 157.0 43.0
    vertex -83.55111126056642 153.38822856765378 43.0
    vertex -83.5 153.0 43.0
  endloop
endfacet
facet normal 0.0 0.0 1.0
  outer loop
    vertex -17.000000000000004 157.0 43.0
    vertex -83.5 153.0 43.0
    vertex -21.750000000000004 154.29903810567666 43.0
  endloop
endfacet
facet normal 0.0 0.0 1.0
  outer loop
    vertex -21.750000000000004 154.29903810567666 43.0
    vertex -83.5 153.0 43.0
    vertex -22.06066017177983 154.06066017177983 43.0
  endloop
endfacet
facet normal 0.0 0.0 1.0
  outer loop
    vertex -22.06066017177983 154.06066017177983 43.0
    vertex -83.5 153.0 43.0
    vertex -22.299038105676658 153.75 43.0
  endloop
endfacet
facet normal 0.0 0.0 1.0
  outer loop
    vertex -22.299038105676658 153.75 43.0
    vertex -83.5 153.0 43.0
    vertex -22.44888873943361 153.38822856765378 43.0
  endloop
endfacet
facet normal 0.0 0.0 1.0
  outer loop
    vertex -22.44888873943361 153.38822856765378 43.0
    vertex -83.5 153.0 43.0
    vertex -22.500000000000004 153.0 43.0
  endloop
endfacet
facet normal 0.0 0.0 1.0
  outer loop
    vertex -22.500000000000004 153.0 43.0
    vertex -83.5 153.0 43.0
    vertex -22.500000000000004 89.0 43.0
  endloop
endfacet
facet normal 0.0 0.0 1.0
  outer loop
    vertex -17.000000000000004 157.0 43.0
    vertex -21.750000000000004 154.29903810567666 43.0
    vertex -21.388228567653787 154.44888873943358 43.0
  endloop
endfacet
facet normal 0.0 0.0 1.0
  outer loop
    vertex -17.000000000000004 157.0 43.0
    vertex -21.388228567653787 154.44888873943358 43.0
    vertex -21.000000000000007 154.5 43.0
  endloop
endfacet
facet normal 0.0 0.0 1.0
  outer loop
    vertex -17.000000000000004 157.0 43.0
    vertex -21.000000000000007 154.5 43.0
    vertex -20.611771432346227 154.44888873943358 43.0
  endloop
endfacet
facet normal 0.0 0.0 1.0
  outer loop
    vertex -17.000000000000004 157.0 43.0
    vertex -20.611771432346227 154.44888873943358 43.0
    vertex -20.250000000000007 154.29903810567666 43.0
  endloop
endfacet
facet normal 0.0 0.0 1.0
  outer loop
    vertex -17.000000000000004 157.0 43.0
    vertex -20.250000000000007 154.29903810567666 43.0
    vertex -19.939339828220184 154.06066017177983 43.0
  endloop
endfacet
facet normal 0.0 0.0 1.0
  outer loop
    vertex -17.000000000000004 157.0 43.0
    vertex -19.939339828220184 154.06066017177983 43.0
    vertex -19.700961894323356 153.75 43.0
  endloop
endfacet
facet normal 0.0 0.0 1.0
  outer loop
    vertex -17.000000000000004 157.0 43.0
    vertex -19.700961894323356 153.75 43.0
    vertex -19.551111260566405 153.38822856765378 43.0
  endloop
endfacet
facet normal 0.0 0.0 1.0
  outer loop
    vertex -17.000000000000004 157.0 43.0
    vertex -19.551111260566405 153.38822856765378 43.0
    vertex -19.50000000000001 153.0 43.0
  endloop
endfacet
facet normal 0.0 0.0 1.0
  outer loop
    vertex -17.000000000000004 157.0 43.0
    vertex -19.50000000000001 153.0 43.0
    vertex -17.000000000000004 85.0 43.0
  endloop
endfacet
facet normal 0.0 0.0 1.0
  outer loop
    vertex -22.44888873943361 89.38822856765378 43.0
    vertex -22.500000000000004 153.0 43.0
    vertex -22.500000000000004 89.0 43.0
  endloop
endfacet
facet normal 0.0 0.0 1.0
  outer loop
    vertex -22.500000000000004 153.0 43.0
    vertex -22.44888873943361 89.38822856765378 43.0
    vertex -22.44888873943361 152.61177143234625 43.0
  endloop
endfacet
facet normal 0.0 0.0 1.0
  outer loop
    vertex -22.44888873943361 152.61177143234625 43.0
    vertex -22.44888873943361 89.38822856765378 43.0
    vertex -22.29903810567667 89.75 43.0
  endloop
endfacet
facet normal 0.0 0.0 1.0
  outer loop
    vertex -22.44888873943361 152.61177143234625 43.0
    vertex -22.29903810567667 89.75 43.0
    vertex -22.299038105676658 152.25 43.0
  endloop
endfacet
facet normal 0.0 0.0 1.0
  outer loop
    vertex -22.299038105676658 152.25 43.0
    vertex -22.29903810567667 89.75 43.0
    vertex -22.06066017177983 90.06066017177983 43.0
  endloop
endfacet
facet normal 0.0 0.0 1.0
  outer loop
    vertex -22.299038105676658 152.25 43.0
    vertex -22.06066017177983 90.06066017177983 43.0
    vertex -22.06066017177983 151.9393398282202 43.0
  endloop
endfacet
facet normal 0.0 0.0 1.0
  outer loop
    vertex -22.06066017177983 151.9393398282202 43.0
    vertex -22.06066017177983 90.06066017177983 43.0
    vertex -21.750000000000004 90.29903810567666 43.0
  endloop
endfacet
facet normal 0.0 0.0 1.0
  outer loop
    vertex -22.06066017177983 151.9393398282202 43.0
    vertex -21.750000000000004 90.29903810567666 43.0
    vertex -21.750000000000004 151.70096189432337 43.0
  endloop
endfacet
facet normal 0.0 0.0 1.0
  outer loop
    vertex -21.750000000000004 151.70096189432337 43.0
    vertex -21.750000000000004 90.29903810567666 43.0
    vertex -21.388228567653787 90.44888873943361 43.0
  endloop
endfacet
facet normal 0.0 0.0 1.0
  outer loop
    vertex -21.750000000000004 151.70096189432337 43.0
    vertex -21.388228567653787 90.44888873943361 43.0
    vertex -21.388228567653787 151.5511112605664 43.0
  endloop
endfacet
facet normal 0.0 0.0 1.0
  outer loop
    vertex -21.388228567653787 151.5511112605664 43.0
    vertex -21.388228567653787 90.44888873943361 43.0
    vertex -21.000000000000007 90.5 43.0
  endloop
endfacet
facet normal 0.0 0.0 1.0
  outer loop
    vertex -21.388228567653787 151.5511112605664 43.0
    vertex -21.000000000000007 90.5 43.0
    vertex -21.000000000000007 151.50000000000003 43.0
  endloop
endfacet
facet normal 0.0 0.0 1.0
  outer loop
    vertex -21.000000000000007 151.50000000000003 43.0
    vertex -21.000000000000007 90.5 43.0
    vertex -20.611771432346227 90.44888873943361 43.0
  endloop
endfacet
facet normal 0.0 0.0 1.0
  outer loop
    vertex -21.000000000000007 151.50000000000003 43.0
    vertex -20.611771432346227 90.44888873943361 43.0
    vertex -20.611771432346227 151.5511112605664 43.0
  endloop
endfacet
facet normal 0.0 0.0 1.0
  outer loop
    vertex -20.611771432346227 151.5511112605664 43.0
    vertex -20.611771432346227 90.44888873943361 43.0
    vertex -20.250000000000007 90.29903810567667 43.0
  endloop
endfacet
facet normal 0.0 0.0 1.0
  outer loop
    vertex -20.611771432346227 151.5511112605664 43.0
    vertex -20.250000000000007 90.29903810567667 43.0
    vertex -20.250000000000007 151.70096189432337 43.0
  endloop
endfacet
facet normal 0.0 0.0 1.0
  outer loop
    vertex -20.250000000000007 151.70096189432337 43.0
    vertex -20.250000000000007 90.29903810567667 43.0
    vertex -19.939339828220184 90.06066017177983 43.0
  endloop
endfacet
facet normal 0.0 0.0 1.0
  outer loop
    vertex -20.250000000000007 151.70096189432337 43.0
    vertex -19.939339828220184 90.06066017177983 43.0
    vertex -19.939339828220184 151.9393398282202 43.0
  endloop
endfacet
facet normal 0.0 0.0 1.0
  outer loop
    vertex -19.939339828220184 151.9393398282202 43.0
    vertex -19.939339828220184 90.06066017177983 43.0
    vertex -19.700961894323346 89.75 43.0
  endloop
endfacet
facet normal 0.0 0.0 1.0
  outer loop
    vertex -19.939339828220184 151.9393398282202 43.0
    vertex -19.700961894323346 89.75 43.0
    vertex -19.700961894323346 152.25 43.0
  endloop
endfacet
facet normal 0.0 0.0 1.0
  outer loop
    vertex -19.700961894323346 152.25 43.0
    vertex -19.700961894323346 89.75 43.0
    vertex -19.551111260566405 89.38822856765378 43.0
  endloop
endfacet
facet normal 0.0 0.0 1.0
  outer loop
    vertex -19.700961894323346 152.25 43.0
    vertex -19.551111260566405 89.38822856765378 43.0
    vertex -19.551111260566405 152.61177143234625 43.0
  endloop
endfacet
facet normal 0.0 0.0 1.0
  outer loop
    vertex -19.551111260566405 152.61177143234625 43.0
    vertex -19.551111260566405 89.38822856765378 43.0
    vertex -19.50000000000001 89.0 43.0
  endloop
endfacet
facet normal 0.0 0.0 1.0
  outer loop
    vertex -19.551111260566405 152.61177143234625 43.0
    vertex -19.50000000000001 89.0 43.0
    vertex -19.50000000000001 153.0 43.0
  endloop
endfacet
facet normal 0.0 0.0 1.0
  outer loop
    vertex -86.4488887394336 89.38822856765378 43.0
    vertex -86.5 153.0 43.0
    vertex -86.50000000000001 89.0 43.0
  endloop
endfacet
facet normal 0.0 0.0 1.0
  outer loop
    vertex -86.5 153.0 43.0
    vertex -86.4488887394336 89.38822856765378 43.0
    vertex -86.4488887394336 152.61177143234625 43.0
  endloop
endfacet
facet normal 0.0 0.0 1.0
  outer loop
    vertex -86.4488887394336 152.61177143234625 43.0
    vertex -86.4488887394336 89.38822856765378 43.0
    vertex -86.29903810567666 89.75 43.0
  endloop
endfacet
facet normal 0.0 0.0 1.0
  outer loop
    vertex -86.4488887394336 152.61177143234625 43.0
    vertex -86.29903810567666 89.75 43.0
    vertex -86.29903810567666 152.25 43.0
  endloop
endfacet
facet normal 0.0 0.0 1.0
  outer loop
    vertex -86.29903810567666 152.25 43.0
    vertex -86.29903810567666 89.75 43.0
    vertex -86.06066017177983 90.06066017177983 43.0
  endloop
endfacet
facet normal 0.0 0.0 1.0
  outer loop
    vertex -86.29903810567666 152.25 43.0
    vertex -86.06066017177983 90.06066017177983 43.0
    vertex -86.06066017177983 151.9393398282202 43.0
  endloop
endfacet
facet normal 0.0 0.0 1.0
  outer loop
    vertex -86.06066017177983 151.9393398282202 43.0
    vertex -86.06066017177983 90.06066017177983 43.0
    vertex -85.75000000000001 90.29903810567666 43.0
  endloop
endfacet
facet normal 0.0 0.0 1.0
  outer loop
    vertex -86.06066017177983 151.9393398282202 43.0
    vertex -85.75000000000001 90.29903810567666 43.0
    vertex -85.75000000000001 151.70096189432337 43.0
  endloop
endfacet
facet normal 0.0 0.0 1.0
  outer loop
    vertex -85.75000000000001 151.70096189432337 43.0
    vertex -85.75000000000001 90.29903810567666 43.0
    vertex -85.3882285676538 90.44888873943361 43.0
  endloop
endfacet
facet normal 0.0 0.0 1.0
  outer loop
    vertex -85.75000000000001 151.70096189432337 43.0
    vertex -85.3882285676538 90.44888873943361 43.0
    vertex -85.3882285676538 151.5511112605664 43.0
  endloop
endfacet
facet normal 0.0 0.0 1.0
  outer loop
    vertex -85.3882285676538 151.5511112605664 43.0
    vertex -85.3882285676538 90.44888873943361 43.0
    vertex -85.0 90.5 43.0
  endloop
endfacet
facet normal 0.0 0.0 1.0
  outer loop
    vertex -85.3882285676538 151.5511112605664 43.0
    vertex -85.0 90.5 43.0
    vertex -85.0 151.50000000000003 43.0
  endloop
endfacet
facet normal 0.0 0.0 1.0
  outer loop
    vertex -85.0 151.50000000000003 43.0
    vertex -85.0 90.5 43.0
    vertex -84.61177143234622 90.44888873943361 43.0
  endloop
endfacet
facet normal 0.0 0.0 1.0
  outer loop
    vertex -85.0 151.50000000000003 43.0
    vertex -84.61177143234622 90.44888873943361 43.0
    vertex -84.61177143234622 151.5511112605664 43.0
  endloop
endfacet
facet normal 0.0 0.0 1.0
  outer loop
    vertex -84.61177143234622 151.5511112605664 43.0
    vertex -84.61177143234622 90.44888873943361 43.0
    vertex -84.25000000000001 90.29903810567667 43.0
  endloop
endfacet
facet normal 0.0 0.0 1.0
  outer loop
    vertex -84.61177143234622 151.5511112605664 43.0
    vertex -84.25000000000001 90.29903810567667 43.0
    vertex -84.25000000000001 151.70096189432337 43.0
  endloop
endfacet
facet normal 0.0 0.0 1.0
  outer loop
    vertex -84.25000000000001 151.70096189432337 43.0
    vertex -84.25000000000001 90.29903810567667 43.0
    vertex -83.93933982822018 90.06066017177983 43.0
  endloop
endfacet
facet normal 0.0 0.0 1.0
  outer loop
    vertex -84.25000000000001 151.70096189432337 43.0
    vertex -83.93933982822018 90.06066017177983 43.0
    vertex -83.93933982822018 151.9393398282202 43.0
  endloop
endfacet
facet normal 0.0 0.0 1.0
  outer loop
    vertex -83.93933982822018 151.9393398282202 43.0
    vertex -83.93933982822018 90.06066017177983 43.0
    vertex -83.70096189432336 89.75 43.0
  endloop
endfacet
facet normal 0.0 0.0 1.0
  outer loop
    vertex -83.93933982822018 151.9393398282202 43.0
    vertex -83.70096189432336 89.75 43.0
    vertex -83.70096189432336 152.25 43.0
  endloop
endfacet
facet normal 0.0 0.0 1.0
  outer loop
    vertex -83.70096189432336 152.25 43.0
    vertex -83.70096189432336 89.75 43.0
    vertex -83.5511112605664 89.38822856765378 43.0
  endloop
endfacet
facet normal 0.0 0.0 1.0
  outer loop
    vertex -83.70096189432336 152.25 43.0
    vertex -83.5511112605664 89.38822856765378 43.0
    vertex -83.55111126056642 152.61177143234625 43.0
  endloop
endfacet
facet normal 0.0 0.0 1.0
  outer loop
    vertex -83.55111126056642 152.61177143234625 43.0
    vertex -83.5511112605664 89.38822856765378 43.0
    vertex -83.5 153.0 43.0
  endloop
endfacet
facet normal 0.0 0.0 1.0
  outer loop
    vertex -83.5 153.0 43.0
    vertex -83.5511112605664 89.38822856765378 43.0
    vertex -83.5 89.0 43.0
  endloop
endfacet
endsolid Face_Frame_R5C
